<?xml version="1.0" encoding="UTF-8"?>
<svg xmlns="http://www.w3.org/2000/svg" xmlns:xlink="http://www.w3.org/1999/xlink" width="41px" height="41px" viewBox="0 0 41 41" version="1.1">
<g id="surface1">
<path style=" stroke:none;fill-rule:nonzero;fill:rgb(0%,0%,0%);fill-opacity:1;" d="M 4.101562 0.046875 C 3.113281 0.195312 2.304688 0.644531 1.628906 1.429688 C 1.035156 2.109375 0.542969 3.042969 0.15625 4.222656 L 0 4.699219 L 0.015625 36.894531 L 0.0898438 37.207031 C 0.289062 38.078125 0.632812 38.679688 1.261719 39.28125 C 1.429688 39.4375 1.699219 39.65625 1.863281 39.769531 C 2.527344 40.21875 3.558594 40.644531 4.589844 40.894531 L 4.996094 40.992188 L 20.957031 40.984375 L 36.914062 40.976562 L 37.234375 40.902344 C 39.140625 40.464844 40.347656 38.875 40.933594 36.03125 L 41 35.710938 L 41 5 L 40.921875 4.660156 C 40.308594 2.128906 39.167969 0.628906 37.5 0.160156 C 36.894531 -0.0078125 37.820312 0 20.457031 0.00390625 C 7.652344 0.0078125 4.316406 0.015625 4.101562 0.046875 Z M 32.464844 4.472656 C 32.589844 4.542969 32.65625 4.621094 32.699219 4.753906 C 32.726562 4.832031 32.734375 5.433594 32.734375 6.792969 C 32.734375 8.679688 32.734375 8.730469 32.667969 8.859375 C 32.621094 8.960938 32.566406 9.015625 32.46875 9.0625 C 32.335938 9.128906 32.28125 9.132812 30.914062 9.132812 L 29.496094 9.132812 L 29.300781 9.234375 C 28.996094 9.394531 28.734375 9.675781 28.578125 10 C 28.359375 10.445312 28.335938 10.652344 28.332031 11.847656 C 28.332031 12.847656 28.335938 12.878906 28.402344 13.007812 C 28.445312 13.09375 28.515625 13.164062 28.59375 13.203125 C 28.710938 13.257812 28.832031 13.261719 30.726562 13.273438 L 32.734375 13.28125 L 32.734375 17.105469 L 28.777344 17.105469 L 28.636719 17.175781 C 28.527344 17.234375 28.472656 17.289062 28.410156 17.410156 L 28.332031 17.566406 L 28.320312 26.917969 L 28.316406 36.265625 L 25.296875 36.265625 C 22.421875 36.265625 22.269531 36.265625 22.144531 36.207031 C 22.066406 36.167969 21.984375 36.101562 21.9375 36.023438 L 21.859375 35.898438 L 21.851562 26.5 L 21.84375 17.105469 L 18 17.105469 L 18 15.421875 C 18 14.304688 18.015625 13.703125 18.035156 13.640625 C 18.078125 13.53125 18.179688 13.417969 18.304688 13.347656 C 18.390625 13.300781 18.585938 13.292969 19.921875 13.277344 C 21.132812 13.265625 21.460938 13.253906 21.523438 13.21875 C 21.644531 13.152344 21.753906 13.046875 21.789062 12.957031 C 21.8125 12.90625 21.832031 12.410156 21.847656 11.621094 C 21.859375 10.734375 21.882812 10.257812 21.921875 9.984375 C 22.097656 8.699219 22.445312 7.691406 22.988281 6.863281 C 23.285156 6.417969 23.894531 5.804688 24.34375 5.511719 C 25.277344 4.886719 26.410156 4.539062 27.835938 4.441406 C 28.035156 4.425781 29.140625 4.414062 30.285156 4.417969 C 32.152344 4.421875 32.378906 4.425781 32.464844 4.472656 Z M 32.464844 4.472656 "/>
</g>
</svg>
