<?xml version="1.0" encoding="UTF-8"?>
<svg xmlns="http://www.w3.org/2000/svg" xmlns:xlink="http://www.w3.org/1999/xlink" width="41px" height="41px" viewBox="0 0 41 41" version="1.1">
<g id="surface1">
<path style=" stroke:none;fill-rule:nonzero;fill:rgb(0%,0%,0%);fill-opacity:1;" d="M 34.167969 30.75 L 30.75 30.75 L 30.75 15.800781 L 20.5 22.207031 L 10.25 15.800781 L 10.25 30.75 L 6.832031 30.75 L 6.832031 10.25 L 8.882812 10.25 L 20.5 17.511719 L 32.117188 10.25 L 34.167969 10.25 M 34.167969 6.832031 L 6.832031 6.832031 C 4.9375 6.832031 3.417969 8.355469 3.417969 10.25 L 3.417969 30.75 C 3.417969 32.628906 4.953125 34.167969 6.832031 34.167969 L 34.167969 34.167969 C 36.046875 34.167969 37.582031 32.628906 37.582031 30.75 L 37.582031 10.25 C 37.582031 8.355469 36.046875 6.832031 34.167969 6.832031 Z M 34.167969 6.832031 "/>
</g>
</svg>
