<?xml version="1.0" encoding="UTF-8"?>
<svg xmlns="http://www.w3.org/2000/svg" xmlns:xlink="http://www.w3.org/1999/xlink" width="41px" height="41px" viewBox="0 0 41 41" version="1.1">
<g id="surface1">
<path style=" stroke:none;fill-rule:nonzero;fill:rgb(0%,0%,0%);fill-opacity:1;" d="M 9.722656 0.0351562 C 9.261719 0.078125 8.472656 0.210938 7.992188 0.335938 C 4.246094 1.300781 1.300781 4.246094 0.335938 7.992188 C 0.207031 8.496094 0.078125 9.261719 0.03125 9.785156 C 0.0117188 10.035156 0 13.808594 0 20.503906 C 0 31.738281 -0.0078125 31.273438 0.175781 32.273438 C 0.679688 35.011719 2.246094 37.453125 4.527344 39.058594 C 6.121094 40.179688 7.914062 40.816406 9.898438 40.96875 C 10.582031 41.019531 31.140625 40.996094 31.519531 40.941406 C 33.363281 40.679688 34.75 40.179688 36.144531 39.28125 C 36.761719 38.878906 37.179688 38.542969 37.773438 37.957031 C 38.800781 36.957031 39.53125 35.917969 40.085938 34.648438 C 40.515625 33.679688 40.761719 32.769531 40.941406 31.519531 C 40.996094 31.140625 41.019531 10.582031 40.96875 9.898438 C 40.824219 8.023438 40.246094 6.316406 39.234375 4.789062 C 37.625 2.355469 35.128906 0.703125 32.273438 0.175781 C 31.273438 -0.0078125 31.753906 0 20.4375 0.00390625 C 14.722656 0.0078125 9.898438 0.0234375 9.722656 0.0351562 Z M 31.199219 3.554688 C 34.167969 3.921875 36.574219 6.039062 37.300781 8.921875 C 37.519531 9.796875 37.507812 9.011719 37.507812 20.515625 C 37.507812 29.664062 37.503906 30.953125 37.460938 31.285156 C 37.300781 32.5 36.839844 33.648438 36.105469 34.636719 C 35.796875 35.054688 35.054688 35.796875 34.636719 36.105469 C 33.648438 36.839844 32.5 37.300781 31.285156 37.460938 C 30.953125 37.503906 29.664062 37.507812 20.515625 37.507812 C 9.011719 37.507812 9.796875 37.519531 8.921875 37.300781 C 6.027344 36.570312 3.886719 34.128906 3.554688 31.167969 C 3.53125 30.953125 3.523438 27.757812 3.53125 20.324219 L 3.539062 9.785156 L 3.628906 9.34375 C 4.148438 6.746094 5.949219 4.6875 8.414062 3.875 C 8.835938 3.738281 9.519531 3.585938 9.898438 3.546875 C 10.1875 3.515625 30.945312 3.527344 31.199219 3.554688 Z M 31.199219 3.554688 "/>
<path style=" stroke:none;fill-rule:nonzero;fill:rgb(0%,0%,0%);fill-opacity:1;" d="M 31.34375 6.867188 C 30.453125 7.074219 29.769531 7.738281 29.550781 8.621094 C 29.476562 8.917969 29.484375 9.4375 29.566406 9.75 C 29.917969 11.132812 31.433594 11.882812 32.75 11.328125 C 33.109375 11.183594 33.5625 10.816406 33.765625 10.519531 C 34.324219 9.691406 34.316406 8.605469 33.746094 7.800781 C 33.460938 7.398438 33.070312 7.109375 32.585938 6.941406 C 32.34375 6.859375 32.246094 6.84375 31.917969 6.835938 C 31.667969 6.824219 31.46875 6.839844 31.34375 6.867188 Z M 31.34375 6.867188 "/>
<path style=" stroke:none;fill-rule:nonzero;fill:rgb(0%,0%,0%);fill-opacity:1;" d="M 19.84375 10.332031 C 17.324219 10.53125 15.058594 11.5625 13.3125 13.3125 C 11.699219 14.921875 10.707031 16.949219 10.386719 19.28125 C 10.3125 19.851562 10.3125 21.191406 10.390625 21.765625 C 10.617188 23.433594 11.132812 24.808594 12.027344 26.152344 C 13.425781 28.25 15.507812 29.75 17.910156 30.382812 C 19.417969 30.777344 21.058594 30.820312 22.578125 30.507812 C 24.539062 30.101562 26.292969 29.15625 27.722656 27.722656 C 29.347656 26.097656 30.332031 24.09375 30.644531 21.78125 C 30.714844 21.246094 30.722656 19.890625 30.660156 19.378906 C 30.359375 16.996094 29.367188 14.949219 27.707031 13.292969 C 26.105469 11.695312 24.058594 10.695312 21.765625 10.394531 C 21.398438 10.34375 20.183594 10.308594 19.84375 10.332031 Z M 21.125 13.457031 C 22.496094 13.570312 23.855469 14.121094 24.953125 14.992188 C 25.3125 15.28125 25.910156 15.898438 26.1875 16.273438 C 26.90625 17.234375 27.34375 18.285156 27.539062 19.492188 C 27.613281 19.984375 27.613281 21.050781 27.539062 21.554688 C 27.050781 24.664062 24.664062 27.050781 21.554688 27.539062 C 21.0625 27.613281 19.957031 27.613281 19.480469 27.539062 C 17.136719 27.160156 15.1875 25.726562 14.15625 23.628906 C 13.09375 21.464844 13.203125 18.921875 14.449219 16.859375 C 15.015625 15.921875 15.921875 15.015625 16.859375 14.449219 C 18.136719 13.675781 19.640625 13.328125 21.125 13.457031 Z M 21.125 13.457031 "/>
</g>
</svg>
