<?xml version="1.0" encoding="UTF-8"?>
<svg xmlns="http://www.w3.org/2000/svg" xmlns:xlink="http://www.w3.org/1999/xlink" width="41px" height="41px" viewBox="0 0 41 41" version="1.1">
<g id="surface1">
<rect x="0" y="0" width="41" height="41" style="fill:rgb(0.392157%,0.392157%,0.392157%);fill-opacity:1;stroke:none;"/>
<path style=" stroke:none;fill-rule:nonzero;fill:rgb(19.215686%,19.607843%,20%);fill-opacity:1;" d="M 29.382812 11.390625 L 29.609375 11.617188 Z M 29.382812 11.390625 "/>
<path style=" stroke:none;fill-rule:nonzero;fill:rgb(38.431373%,38.431373%,38.823529%);fill-opacity:1;" d="M 29.609375 11.390625 L 29.839844 11.617188 Z M 29.609375 11.390625 "/>
<path style=" stroke:none;fill-rule:nonzero;fill:rgb(60.392157%,60.784314%,61.568627%);fill-opacity:1;" d="M 29.839844 11.390625 L 29.839844 11.617188 L 30.523438 11.617188 Z M 29.839844 11.390625 "/>
<path style=" stroke:none;fill-rule:nonzero;fill:rgb(38.431373%,38.431373%,38.823529%);fill-opacity:1;" d="M 30.523438 11.390625 L 30.75 11.617188 Z M 30.523438 11.390625 "/>
<path style=" stroke:none;fill-rule:nonzero;fill:rgb(19.215686%,19.607843%,20%);fill-opacity:1;" d="M 30.75 11.390625 L 30.976562 11.617188 L 30.75 11.390625 M 15.488281 11.617188 L 15.714844 11.84375 Z M 15.488281 11.617188 "/>
<path style=" stroke:none;fill-rule:nonzero;fill:rgb(38.431373%,38.431373%,38.823529%);fill-opacity:1;" d="M 15.714844 11.617188 L 15.945312 11.84375 Z M 15.714844 11.617188 "/>
<path style=" stroke:none;fill-rule:nonzero;fill:rgb(60.392157%,60.784314%,61.568627%);fill-opacity:1;" d="M 15.945312 11.617188 L 15.945312 11.84375 L 16.855469 11.84375 Z M 15.945312 11.617188 "/>
<path style=" stroke:none;fill-rule:nonzero;fill:rgb(38.431373%,38.431373%,38.823529%);fill-opacity:1;" d="M 16.855469 11.617188 L 17.082031 11.84375 Z M 16.855469 11.617188 "/>
<path style=" stroke:none;fill-rule:nonzero;fill:rgb(19.215686%,19.607843%,20%);fill-opacity:1;" d="M 17.082031 11.617188 L 17.3125 11.84375 L 17.082031 11.617188 M 28.929688 11.617188 L 28.472656 12.300781 Z M 28.929688 11.617188 "/>
<path style=" stroke:none;fill-rule:nonzero;fill:rgb(60.392157%,60.784314%,61.568627%);fill-opacity:1;" d="M 28.699219 12.300781 L 29.609375 11.84375 Z M 28.699219 12.300781 "/>
<path style=" stroke:none;fill-rule:nonzero;fill:rgb(94.117647%,94.117647%,94.117647%);fill-opacity:1;" d="M 28.472656 17.996094 C 27.539062 17.453125 26.597656 17.039062 25.511719 16.925781 C 17.445312 16.066406 17.875 31.367188 26.195312 29.761719 C 27.101562 29.585938 27.785156 29.054688 28.472656 28.472656 C 29.191406 29.765625 30.789062 30.25 31.621094 28.691406 C 32.101562 27.792969 31.890625 26.496094 31.890625 25.511719 L 31.890625 16.855469 C 31.890625 15.605469 32.167969 13.945312 31.683594 12.765625 C 31.167969 11.496094 29.453125 11.308594 28.773438 12.550781 C 28.003906 13.953125 28.472656 16.4375 28.472656 17.996094 Z M 28.472656 17.996094 "/>
<path style=" stroke:none;fill-rule:nonzero;fill:rgb(60.392157%,60.784314%,61.568627%);fill-opacity:1;" d="M 30.75 11.617188 L 30.976562 11.84375 Z M 30.75 11.617188 "/>
<path style=" stroke:none;fill-rule:nonzero;fill:rgb(38.431373%,38.431373%,38.823529%);fill-opacity:1;" d="M 30.976562 11.617188 L 31.207031 11.84375 Z M 30.976562 11.617188 "/>
<path style=" stroke:none;fill-rule:nonzero;fill:rgb(19.215686%,19.607843%,20%);fill-opacity:1;" d="M 31.207031 11.617188 L 31.890625 12.300781 L 31.207031 11.617188 M 15.035156 11.84375 L 14.578125 12.527344 Z M 15.035156 11.84375 "/>
<path style=" stroke:none;fill-rule:nonzero;fill:rgb(38.431373%,38.431373%,38.823529%);fill-opacity:1;" d="M 15.261719 11.84375 L 15.488281 12.070312 Z M 15.261719 11.84375 "/>
<path style=" stroke:none;fill-rule:nonzero;fill:rgb(60.392157%,60.784314%,61.568627%);fill-opacity:1;" d="M 15.488281 11.84375 L 15.714844 12.070312 Z M 15.488281 11.84375 "/>
<path style=" stroke:none;fill-rule:nonzero;fill:rgb(94.117647%,94.117647%,94.117647%);fill-opacity:1;" d="M 15.742188 12.015625 C 14.472656 12.539062 14.804688 14.394531 14.804688 15.488281 C 14.804688 18.582031 15.351562 22.253906 14.726562 25.28125 C 14.039062 28.613281 10.898438 24.933594 9.539062 26.722656 C 7.429688 29.492188 13.777344 30.261719 15.261719 29.710938 C 19.714844 28.058594 17.996094 19.269531 17.996094 15.488281 C 17.996094 14.117188 18.09375 11.039062 15.742188 12.015625 Z M 15.742188 12.015625 "/>
<path style=" stroke:none;fill-rule:nonzero;fill:rgb(60.392157%,60.784314%,61.568627%);fill-opacity:1;" d="M 17.082031 11.84375 L 17.3125 12.070312 Z M 17.082031 11.84375 "/>
<path style=" stroke:none;fill-rule:nonzero;fill:rgb(38.431373%,38.431373%,38.823529%);fill-opacity:1;" d="M 17.3125 11.84375 L 17.539062 12.070312 Z M 17.3125 11.84375 "/>
<path style=" stroke:none;fill-rule:nonzero;fill:rgb(19.215686%,19.607843%,20%);fill-opacity:1;" d="M 17.539062 11.84375 L 17.996094 12.300781 Z M 17.539062 11.84375 "/>
<path style=" stroke:none;fill-rule:nonzero;fill:rgb(60.392157%,60.784314%,61.568627%);fill-opacity:1;" d="M 31.207031 11.84375 L 31.433594 12.070312 L 31.207031 11.84375 M 15.035156 12.070312 L 15.261719 12.300781 L 15.035156 12.070312 M 17.539062 12.070312 L 17.765625 12.300781 L 17.539062 12.070312 M 31.433594 12.070312 L 31.660156 12.300781 L 31.433594 12.070312 M 14.882812 12.453125 L 14.957031 12.605469 Z M 14.882812 12.453125 "/>
<path style=" stroke:none;fill-rule:nonzero;fill:rgb(38.431373%,38.431373%,38.823529%);fill-opacity:1;" d="M 17.765625 12.300781 L 17.996094 12.527344 L 17.765625 12.300781 M 28.472656 12.300781 L 28.699219 12.527344 L 28.472656 12.300781 M 31.660156 12.300781 L 31.890625 12.527344 L 31.660156 12.300781 M 14.652344 12.679688 L 14.730469 12.832031 Z M 14.652344 12.679688 "/>
<path style=" stroke:none;fill-rule:nonzero;fill:rgb(60.392157%,60.784314%,61.568627%);fill-opacity:1;" d="M 17.765625 12.527344 L 17.996094 12.753906 Z M 17.765625 12.527344 "/>
<path style=" stroke:none;fill-rule:nonzero;fill:rgb(19.215686%,19.607843%,20%);fill-opacity:1;" d="M 17.996094 12.527344 L 18.222656 12.753906 L 17.996094 12.527344 M 28.246094 12.527344 L 28.472656 12.753906 Z M 28.246094 12.527344 "/>
<path style=" stroke:none;fill-rule:nonzero;fill:rgb(60.392157%,60.784314%,61.568627%);fill-opacity:1;" d="M 28.546875 12.679688 L 28.625 12.832031 L 28.546875 12.679688 M 31.738281 12.679688 L 31.8125 12.832031 Z M 31.738281 12.679688 "/>
<path style=" stroke:none;fill-rule:nonzero;fill:rgb(19.215686%,19.607843%,20%);fill-opacity:1;" d="M 31.964844 12.679688 L 32.039062 12.832031 L 31.964844 12.679688 M 14.351562 12.753906 L 14.351562 25.738281 L 14.578125 25.738281 L 14.578125 16.855469 Z M 14.351562 12.753906 "/>
<path style=" stroke:none;fill-rule:nonzero;fill:rgb(38.431373%,38.431373%,38.823529%);fill-opacity:1;" d="M 18.070312 12.90625 L 18.144531 13.058594 L 18.070312 12.90625 M 28.246094 12.753906 L 28.015625 17.765625 L 28.246094 17.765625 C 28.644531 16.417969 28.792969 14.066406 28.246094 12.753906 Z M 28.246094 12.753906 "/>
<path style=" stroke:none;fill-rule:nonzero;fill:rgb(60.392157%,60.784314%,61.568627%);fill-opacity:1;" d="M 14.578125 12.984375 L 14.578125 25.738281 L 14.804688 25.738281 L 14.804688 17.082031 Z M 14.578125 12.984375 "/>
<path style=" stroke:none;fill-rule:nonzero;fill:rgb(38.431373%,38.431373%,38.823529%);fill-opacity:1;" d="M 31.890625 12.984375 L 31.890625 28.472656 L 32.117188 28.472656 L 32.117188 17.765625 Z M 31.890625 12.984375 "/>
<path style=" stroke:none;fill-rule:nonzero;fill:rgb(60.392157%,60.784314%,61.568627%);fill-opacity:1;" d="M 17.996094 13.210938 L 17.996094 26.195312 L 18.222656 26.195312 L 18.222656 17.3125 Z M 17.996094 13.210938 "/>
<path style=" stroke:none;fill-rule:nonzero;fill:rgb(19.215686%,19.607843%,20%);fill-opacity:1;" d="M 18.222656 13.210938 L 18.222656 25.964844 L 18.449219 25.964844 L 18.449219 17.3125 L 18.222656 13.210938 M 28.015625 13.210938 L 27.789062 17.539062 C 28.628906 16.804688 28.425781 14.191406 28.015625 13.210938 M 23.917969 16.628906 L 23.917969 16.855469 L 26.421875 16.855469 L 23.917969 16.628906 M 23.234375 16.855469 L 23.460938 17.082031 Z M 23.234375 16.855469 "/>
<path style=" stroke:none;fill-rule:nonzero;fill:rgb(38.431373%,38.431373%,38.823529%);fill-opacity:1;" d="M 23.613281 16.929688 L 23.765625 17.007812 Z M 23.613281 16.929688 "/>
<path style=" stroke:none;fill-rule:nonzero;fill:rgb(60.392157%,60.784314%,61.568627%);fill-opacity:1;" d="M 24.070312 16.929688 L 24.21875 17.007812 L 24.070312 16.929688 M 25.738281 16.855469 L 25.738281 17.082031 L 26.421875 17.082031 Z M 25.738281 16.855469 "/>
<path style=" stroke:none;fill-rule:nonzero;fill:rgb(38.431373%,38.431373%,38.823529%);fill-opacity:1;" d="M 26.421875 16.855469 L 26.648438 17.082031 Z M 26.421875 16.855469 "/>
<path style=" stroke:none;fill-rule:nonzero;fill:rgb(19.215686%,19.607843%,20%);fill-opacity:1;" d="M 26.800781 16.929688 L 26.953125 17.007812 L 26.800781 16.929688 M 22.320312 17.539062 L 23.003906 17.3125 Z M 22.320312 17.539062 "/>
<path style=" stroke:none;fill-rule:nonzero;fill:rgb(38.431373%,38.431373%,38.823529%);fill-opacity:1;" d="M 23.003906 17.082031 L 23.234375 17.3125 Z M 23.003906 17.082031 "/>
<path style=" stroke:none;fill-rule:nonzero;fill:rgb(60.392157%,60.784314%,61.568627%);fill-opacity:1;" d="M 23.234375 17.082031 L 23.460938 17.3125 L 23.234375 17.082031 M 26.878906 17.082031 L 27.105469 17.3125 Z M 26.878906 17.082031 "/>
<path style=" stroke:none;fill-rule:nonzero;fill:rgb(38.431373%,38.431373%,38.823529%);fill-opacity:1;" d="M 27.105469 17.082031 L 27.332031 17.3125 Z M 27.105469 17.082031 "/>
<path style=" stroke:none;fill-rule:nonzero;fill:rgb(19.215686%,19.607843%,20%);fill-opacity:1;" d="M 27.332031 17.082031 L 27.5625 17.3125 Z M 27.332031 17.082031 "/>
<path style=" stroke:none;fill-rule:nonzero;fill:rgb(60.392157%,60.784314%,61.568627%);fill-opacity:1;" d="M 22.550781 17.3125 L 22.777344 17.539062 L 22.550781 17.3125 M 27.332031 17.3125 L 27.5625 17.539062 Z M 27.332031 17.3125 "/>
<path style=" stroke:none;fill-rule:nonzero;fill:rgb(38.431373%,38.431373%,38.823529%);fill-opacity:1;" d="M 27.5625 17.3125 L 27.789062 17.539062 Z M 27.5625 17.3125 "/>
<path style=" stroke:none;fill-rule:nonzero;fill:rgb(19.215686%,19.607843%,20%);fill-opacity:1;" d="M 21.867188 17.539062 L 20.957031 18.679688 Z M 21.867188 17.539062 "/>
<path style=" stroke:none;fill-rule:nonzero;fill:rgb(38.431373%,38.431373%,38.823529%);fill-opacity:1;" d="M 22.09375 17.539062 L 22.320312 17.765625 Z M 22.09375 17.539062 "/>
<path style=" stroke:none;fill-rule:nonzero;fill:rgb(60.392157%,60.784314%,61.568627%);fill-opacity:1;" d="M 22.320312 17.539062 L 22.550781 17.765625 L 22.320312 17.539062 M 27.789062 17.539062 L 28.015625 17.765625 L 27.789062 17.539062 M 28.320312 17.691406 L 28.394531 17.84375 L 28.320312 17.691406 M 21.867188 17.765625 L 22.09375 17.996094 L 21.867188 17.765625 M 21.640625 17.996094 L 21.867188 18.222656 L 21.640625 17.996094 M 21.410156 18.222656 L 21.640625 18.449219 L 21.410156 18.222656 M 21.183594 18.449219 L 21.410156 18.679688 L 21.183594 18.449219 M 20.957031 18.679688 L 21.183594 18.90625 Z M 20.957031 18.679688 "/>
<path style=" stroke:none;fill-rule:nonzero;fill:rgb(38.431373%,38.431373%,38.823529%);fill-opacity:1;" d="M 20.726562 18.90625 L 20.957031 19.132812 L 20.726562 18.90625 M 20.5 19.132812 L 20.726562 19.359375 Z M 20.5 19.132812 "/>
<path style=" stroke:none;fill-rule:nonzero;fill:rgb(60.392157%,60.784314%,61.568627%);fill-opacity:1;" d="M 20.5 19.359375 L 20.726562 19.589844 Z M 20.5 19.359375 "/>
<path style=" stroke:none;fill-rule:nonzero;fill:rgb(38.431373%,38.431373%,38.823529%);fill-opacity:1;" d="M 20.273438 19.589844 L 20.5 19.816406 Z M 20.273438 19.589844 "/>
<path style=" stroke:none;fill-rule:nonzero;fill:rgb(19.215686%,19.607843%,20%);fill-opacity:1;" d="M 20.042969 19.816406 L 20.273438 20.042969 Z M 20.042969 19.816406 "/>
<path style=" stroke:none;fill-rule:nonzero;fill:rgb(60.392157%,60.784314%,61.568627%);fill-opacity:1;" d="M 20.273438 19.816406 L 20.5 20.042969 Z M 20.273438 19.816406 "/>
<path style=" stroke:none;fill-rule:nonzero;fill:rgb(38.431373%,38.431373%,38.823529%);fill-opacity:1;" d="M 20.042969 20.042969 L 20.273438 20.273438 Z M 20.042969 20.042969 "/>
<path style=" stroke:none;fill-rule:nonzero;fill:rgb(60.392157%,60.784314%,61.568627%);fill-opacity:1;" d="M 24.75 20.121094 L 24.902344 20.195312 Z M 24.75 20.121094 "/>
<path style=" stroke:none;fill-rule:nonzero;fill:rgb(19.215686%,19.607843%,20%);fill-opacity:1;" d="M 25.054688 20.042969 L 25.285156 20.273438 Z M 25.054688 20.042969 "/>
<path style=" stroke:none;fill-rule:nonzero;fill:rgb(0.392157%,0.392157%,0.392157%);fill-opacity:1;" d="M 25.285156 20.183594 C 22.1875 20.902344 22.804688 27.378906 26.195312 26.546875 C 29.082031 25.839844 28.574219 19.421875 25.285156 20.183594 Z M 25.285156 20.183594 "/>
<path style=" stroke:none;fill-rule:nonzero;fill:rgb(19.215686%,19.607843%,20%);fill-opacity:1;" d="M 26.195312 20.042969 L 26.421875 20.273438 Z M 26.195312 20.042969 "/>
<path style=" stroke:none;fill-rule:nonzero;fill:rgb(60.392157%,60.784314%,61.568627%);fill-opacity:1;" d="M 26.574219 20.121094 L 26.726562 20.195312 L 26.574219 20.121094 M 20.042969 20.273438 L 20.273438 20.5 Z M 20.042969 20.273438 "/>
<path style=" stroke:none;fill-rule:nonzero;fill:rgb(38.431373%,38.431373%,38.823529%);fill-opacity:1;" d="M 24.371094 20.273438 L 24.601562 20.5 Z M 24.371094 20.273438 "/>
<path style=" stroke:none;fill-rule:nonzero;fill:rgb(19.215686%,19.607843%,20%);fill-opacity:1;" d="M 26.648438 20.273438 L 26.878906 20.5 Z M 26.648438 20.273438 "/>
<path style=" stroke:none;fill-rule:nonzero;fill:rgb(38.431373%,38.431373%,38.823529%);fill-opacity:1;" d="M 26.878906 20.273438 L 27.105469 20.5 L 26.878906 20.273438 M 19.894531 20.652344 L 19.96875 20.804688 Z M 19.894531 20.652344 "/>
<path style=" stroke:none;fill-rule:nonzero;fill:rgb(60.392157%,60.784314%,61.568627%);fill-opacity:1;" d="M 23.917969 20.5 L 23.6875 20.957031 Z M 23.917969 20.5 "/>
<path style=" stroke:none;fill-rule:nonzero;fill:rgb(38.431373%,38.431373%,38.823529%);fill-opacity:1;" d="M 24.144531 20.5 L 24.371094 20.726562 L 24.144531 20.5 M 27.105469 20.5 L 27.332031 20.726562 Z M 27.105469 20.5 "/>
<path style=" stroke:none;fill-rule:nonzero;fill:rgb(60.392157%,60.784314%,61.568627%);fill-opacity:1;" d="M 27.332031 20.5 L 27.789062 20.957031 Z M 27.332031 20.5 "/>
<path style=" stroke:none;fill-rule:nonzero;fill:rgb(38.431373%,38.431373%,38.823529%);fill-opacity:1;" d="M 23.917969 20.726562 L 24.144531 20.957031 Z M 23.917969 20.726562 "/>
<path style=" stroke:none;fill-rule:nonzero;fill:rgb(19.215686%,19.607843%,20%);fill-opacity:1;" d="M 27.332031 20.726562 L 27.5625 20.957031 L 27.332031 20.726562 M 19.589844 20.957031 L 19.816406 21.183594 Z M 19.589844 20.957031 "/>
<path style=" stroke:none;fill-rule:nonzero;fill:rgb(60.392157%,60.784314%,61.568627%);fill-opacity:1;" d="M 19.816406 20.957031 L 20.042969 21.183594 Z M 19.816406 20.957031 "/>
<path style=" stroke:none;fill-rule:nonzero;fill:rgb(38.431373%,38.431373%,38.823529%);fill-opacity:1;" d="M 23.6875 20.957031 L 23.917969 21.183594 L 23.6875 20.957031 M 27.5625 20.957031 L 27.789062 21.183594 L 27.5625 20.957031 M 19.589844 21.183594 L 19.589844 21.867188 L 19.816406 21.867188 Z M 19.589844 21.183594 "/>
<path style=" stroke:none;fill-rule:nonzero;fill:rgb(60.392157%,60.784314%,61.568627%);fill-opacity:1;" d="M 23.460938 21.183594 L 23.234375 21.867188 L 23.460938 21.867188 Z M 23.460938 21.183594 "/>
<path style=" stroke:none;fill-rule:nonzero;fill:rgb(19.215686%,19.607843%,20%);fill-opacity:1;" d="M 23.6875 21.183594 L 23.917969 21.410156 L 23.6875 21.183594 M 27.5625 21.183594 L 27.789062 21.867188 L 28.015625 21.867188 Z M 27.5625 21.183594 "/>
<path style=" stroke:none;fill-rule:nonzero;fill:rgb(60.392157%,60.784314%,61.568627%);fill-opacity:1;" d="M 27.789062 21.183594 L 28.015625 21.410156 Z M 27.789062 21.183594 "/>
<path style=" stroke:none;fill-rule:nonzero;fill:rgb(38.431373%,38.431373%,38.823529%);fill-opacity:1;" d="M 23.460938 21.410156 L 23.6875 21.640625 Z M 23.460938 21.410156 "/>
<path style=" stroke:none;fill-rule:nonzero;fill:rgb(60.392157%,60.784314%,61.568627%);fill-opacity:1;" d="M 28.09375 21.5625 L 28.167969 21.714844 Z M 28.09375 21.5625 "/>
<path style=" stroke:none;fill-rule:nonzero;fill:rgb(19.215686%,19.607843%,20%);fill-opacity:1;" d="M 23.460938 21.640625 L 23.6875 21.867188 L 23.460938 21.640625 M 19.4375 22.019531 L 19.511719 22.171875 Z M 19.4375 22.019531 "/>
<path style=" stroke:none;fill-rule:nonzero;fill:rgb(60.392157%,60.784314%,61.568627%);fill-opacity:1;" d="M 19.589844 21.867188 L 19.589844 22.550781 L 19.816406 22.550781 Z M 19.589844 21.867188 "/>
<path style=" stroke:none;fill-rule:nonzero;fill:rgb(38.431373%,38.431373%,38.823529%);fill-opacity:1;" d="M 23.234375 21.867188 L 23.460938 22.09375 L 23.234375 21.867188 M 28.015625 21.867188 L 28.246094 22.09375 Z M 28.015625 21.867188 "/>
<path style=" stroke:none;fill-rule:nonzero;fill:rgb(60.392157%,60.784314%,61.568627%);fill-opacity:1;" d="M 23.003906 22.09375 L 23.003906 22.777344 L 23.234375 22.777344 Z M 23.003906 22.09375 "/>
<path style=" stroke:none;fill-rule:nonzero;fill:rgb(19.215686%,19.607843%,20%);fill-opacity:1;" d="M 23.308594 22.246094 L 23.386719 22.398438 L 23.308594 22.246094 M 28.015625 22.09375 L 28.015625 24.601562 L 28.246094 24.601562 Z M 28.015625 22.09375 "/>
<path style=" stroke:none;fill-rule:nonzero;fill:rgb(60.392157%,60.784314%,61.568627%);fill-opacity:1;" d="M 28.246094 22.09375 L 28.246094 23.003906 L 28.472656 23.003906 Z M 28.246094 22.09375 "/>
<path style=" stroke:none;fill-rule:nonzero;fill:rgb(38.431373%,38.431373%,38.823529%);fill-opacity:1;" d="M 19.359375 22.320312 L 19.359375 24.601562 L 19.589844 24.601562 L 19.359375 22.320312 M 23.003906 22.777344 L 23.003906 24.144531 L 23.234375 24.144531 L 23.003906 22.777344 M 28.320312 23.15625 L 28.394531 23.308594 Z M 28.320312 23.15625 "/>
<path style=" stroke:none;fill-rule:nonzero;fill:rgb(60.392157%,60.784314%,61.568627%);fill-opacity:1;" d="M 28.246094 23.460938 L 28.246094 24.601562 L 28.472656 24.601562 L 28.246094 23.460938 M 23.003906 24.144531 L 23.003906 24.828125 L 23.234375 24.828125 Z M 23.003906 24.144531 "/>
<path style=" stroke:none;fill-rule:nonzero;fill:rgb(19.215686%,19.607843%,20%);fill-opacity:1;" d="M 23.234375 24.371094 L 23.460938 24.601562 L 23.234375 24.371094 M 19.4375 24.75 L 19.511719 24.902344 Z M 19.4375 24.75 "/>
<path style=" stroke:none;fill-rule:nonzero;fill:rgb(60.392157%,60.784314%,61.568627%);fill-opacity:1;" d="M 19.589844 24.601562 L 19.589844 25.285156 L 19.816406 25.285156 Z M 19.589844 24.601562 "/>
<path style=" stroke:none;fill-rule:nonzero;fill:rgb(38.431373%,38.431373%,38.823529%);fill-opacity:1;" d="M 23.308594 24.75 L 23.386719 24.902344 L 23.308594 24.75 M 28.015625 24.601562 L 28.246094 24.828125 Z M 28.015625 24.601562 "/>
<path style=" stroke:none;fill-rule:nonzero;fill:rgb(19.215686%,19.607843%,20%);fill-opacity:1;" d="M 27.789062 24.828125 L 28.015625 25.054688 Z M 27.789062 24.828125 "/>
<path style=" stroke:none;fill-rule:nonzero;fill:rgb(60.392157%,60.784314%,61.568627%);fill-opacity:1;" d="M 28.015625 24.828125 L 26.878906 26.648438 L 28.015625 24.828125 M 23.234375 25.054688 L 23.460938 25.285156 Z M 23.234375 25.054688 "/>
<path style=" stroke:none;fill-rule:nonzero;fill:rgb(19.215686%,19.607843%,20%);fill-opacity:1;" d="M 23.460938 25.054688 L 23.6875 25.285156 Z M 23.460938 25.054688 "/>
<path style=" stroke:none;fill-rule:nonzero;fill:rgb(38.431373%,38.431373%,38.823529%);fill-opacity:1;" d="M 27.789062 25.054688 L 28.015625 25.285156 L 27.789062 25.054688 M 19.664062 25.433594 L 19.742188 25.585938 L 19.664062 25.433594 M 23.460938 25.285156 L 23.6875 25.511719 Z M 23.460938 25.285156 "/>
<path style=" stroke:none;fill-rule:nonzero;fill:rgb(19.215686%,19.607843%,20%);fill-opacity:1;" d="M 27.5625 25.285156 L 27.789062 25.511719 Z M 27.5625 25.285156 "/>
<path style=" stroke:none;fill-rule:nonzero;fill:rgb(60.392157%,60.784314%,61.568627%);fill-opacity:1;" d="M 19.894531 25.664062 L 19.96875 25.816406 L 19.894531 25.664062 M 23.460938 25.511719 L 23.917969 25.964844 Z M 23.460938 25.511719 "/>
<path style=" stroke:none;fill-rule:nonzero;fill:rgb(19.215686%,19.607843%,20%);fill-opacity:1;" d="M 23.6875 25.511719 L 23.917969 25.738281 Z M 23.6875 25.511719 "/>
<path style=" stroke:none;fill-rule:nonzero;fill:rgb(38.431373%,38.431373%,38.823529%);fill-opacity:1;" d="M 27.5625 25.511719 L 27.789062 25.738281 Z M 27.5625 25.511719 "/>
<path style=" stroke:none;fill-rule:nonzero;fill:rgb(19.215686%,19.607843%,20%);fill-opacity:1;" d="M 10.402344 25.816406 L 10.554688 25.890625 Z M 10.402344 25.816406 "/>
<path style=" stroke:none;fill-rule:nonzero;fill:rgb(38.431373%,38.431373%,38.823529%);fill-opacity:1;" d="M 14.351562 25.738281 L 14.578125 25.964844 Z M 14.351562 25.738281 "/>
<path style=" stroke:none;fill-rule:nonzero;fill:rgb(19.215686%,19.607843%,20%);fill-opacity:1;" d="M 19.589844 25.738281 L 19.816406 25.964844 L 19.589844 25.738281 M 23.917969 25.738281 L 24.601562 26.421875 L 23.917969 25.738281 M 27.332031 25.738281 L 27.5625 25.964844 L 27.332031 25.738281 M 9.566406 25.964844 L 9.109375 26.648438 Z M 9.566406 25.964844 "/>
<path style=" stroke:none;fill-rule:nonzero;fill:rgb(38.431373%,38.431373%,38.823529%);fill-opacity:1;" d="M 9.792969 25.964844 L 10.023438 26.195312 Z M 9.792969 25.964844 "/>
<path style=" stroke:none;fill-rule:nonzero;fill:rgb(60.392157%,60.784314%,61.568627%);fill-opacity:1;" d="M 10.023438 25.964844 L 10.023438 26.195312 L 10.933594 26.195312 Z M 10.023438 25.964844 "/>
<path style=" stroke:none;fill-rule:nonzero;fill:rgb(38.431373%,38.431373%,38.823529%);fill-opacity:1;" d="M 10.933594 25.964844 L 11.160156 26.195312 Z M 10.933594 25.964844 "/>
<path style=" stroke:none;fill-rule:nonzero;fill:rgb(19.215686%,19.607843%,20%);fill-opacity:1;" d="M 11.160156 25.964844 L 11.390625 26.195312 L 11.160156 25.964844 M 14.121094 25.964844 L 14.351562 26.195312 Z M 14.121094 25.964844 "/>
<path style=" stroke:none;fill-rule:nonzero;fill:rgb(60.392157%,60.784314%,61.568627%);fill-opacity:1;" d="M 14.351562 25.964844 L 13.667969 26.648438 L 13.667969 26.878906 Z M 14.351562 25.964844 "/>
<path style=" stroke:none;fill-rule:nonzero;fill:rgb(38.431373%,38.431373%,38.823529%);fill-opacity:1;" d="M 19.816406 25.964844 L 20.042969 26.195312 L 19.816406 25.964844 M 23.917969 25.964844 L 24.144531 26.195312 Z M 23.917969 25.964844 "/>
<path style=" stroke:none;fill-rule:nonzero;fill:rgb(19.215686%,19.607843%,20%);fill-opacity:1;" d="M 27.105469 25.964844 L 27.332031 26.195312 Z M 27.105469 25.964844 "/>
<path style=" stroke:none;fill-rule:nonzero;fill:rgb(60.392157%,60.784314%,61.568627%);fill-opacity:1;" d="M 9.566406 26.195312 L 9.792969 26.421875 L 9.566406 26.195312 M 11.3125 26.269531 L 11.464844 26.347656 Z M 11.3125 26.269531 "/>
<path style=" stroke:none;fill-rule:nonzero;fill:rgb(38.431373%,38.431373%,38.823529%);fill-opacity:1;" d="M 11.617188 26.195312 L 11.84375 26.421875 Z M 11.617188 26.195312 "/>
<path style=" stroke:none;fill-rule:nonzero;fill:rgb(19.215686%,19.607843%,20%);fill-opacity:1;" d="M 11.84375 26.195312 L 12.070312 26.421875 Z M 11.84375 26.195312 "/>
<path style=" stroke:none;fill-rule:nonzero;fill:rgb(38.431373%,38.431373%,38.823529%);fill-opacity:1;" d="M 14.121094 26.195312 L 14.351562 26.421875 L 14.121094 26.195312 M 17.996094 26.195312 L 17.996094 26.878906 L 18.222656 26.878906 Z M 17.996094 26.195312 "/>
<path style=" stroke:none;fill-rule:nonzero;fill:rgb(19.215686%,19.607843%,20%);fill-opacity:1;" d="M 19.816406 26.195312 L 20.042969 26.421875 Z M 19.816406 26.195312 "/>
<path style=" stroke:none;fill-rule:nonzero;fill:rgb(60.392157%,60.784314%,61.568627%);fill-opacity:1;" d="M 20.042969 26.195312 L 20.273438 26.421875 L 20.042969 26.195312 M 24.144531 26.195312 L 24.371094 26.421875 Z M 24.144531 26.195312 "/>
<path style=" stroke:none;fill-rule:nonzero;fill:rgb(19.215686%,19.607843%,20%);fill-opacity:1;" d="M 26.878906 26.195312 L 27.105469 26.421875 Z M 26.878906 26.195312 "/>
<path style=" stroke:none;fill-rule:nonzero;fill:rgb(60.392157%,60.784314%,61.568627%);fill-opacity:1;" d="M 9.339844 26.421875 L 9.566406 26.648438 L 9.339844 26.421875 M 11.84375 26.421875 L 12.070312 26.648438 Z M 11.84375 26.421875 "/>
<path style=" stroke:none;fill-rule:nonzero;fill:rgb(38.431373%,38.431373%,38.823529%);fill-opacity:1;" d="M 12.070312 26.421875 L 12.300781 26.648438 Z M 12.070312 26.421875 "/>
<path style=" stroke:none;fill-rule:nonzero;fill:rgb(19.215686%,19.607843%,20%);fill-opacity:1;" d="M 12.300781 26.421875 L 12.527344 26.648438 L 12.300781 26.421875 M 13.894531 26.421875 L 14.121094 26.648438 Z M 13.894531 26.421875 "/>
<path style=" stroke:none;fill-rule:nonzero;fill:rgb(38.431373%,38.431373%,38.823529%);fill-opacity:1;" d="M 20.042969 26.421875 L 20.273438 26.648438 Z M 20.042969 26.421875 "/>
<path style=" stroke:none;fill-rule:nonzero;fill:rgb(60.392157%,60.784314%,61.568627%);fill-opacity:1;" d="M 24.371094 26.421875 L 24.601562 26.648438 Z M 24.371094 26.421875 "/>
<path style=" stroke:none;fill-rule:nonzero;fill:rgb(38.431373%,38.431373%,38.823529%);fill-opacity:1;" d="M 24.601562 26.421875 L 24.828125 26.648438 Z M 24.601562 26.421875 "/>
<path style=" stroke:none;fill-rule:nonzero;fill:rgb(19.215686%,19.607843%,20%);fill-opacity:1;" d="M 24.828125 26.421875 L 25.054688 26.648438 L 24.828125 26.421875 M 26.421875 26.421875 L 26.648438 26.648438 Z M 26.421875 26.421875 "/>
<path style=" stroke:none;fill-rule:nonzero;fill:rgb(38.431373%,38.431373%,38.823529%);fill-opacity:1;" d="M 26.648438 26.421875 L 26.878906 26.648438 L 26.648438 26.421875 M 9.109375 26.648438 L 9.339844 26.878906 Z M 9.109375 26.648438 "/>
<path style=" stroke:none;fill-rule:nonzero;fill:rgb(60.392157%,60.784314%,61.568627%);fill-opacity:1;" d="M 12.453125 26.726562 L 12.605469 26.800781 Z M 12.453125 26.726562 "/>
<path style=" stroke:none;fill-rule:nonzero;fill:rgb(38.431373%,38.431373%,38.823529%);fill-opacity:1;" d="M 12.753906 26.648438 L 12.753906 26.878906 L 13.667969 26.878906 Z M 12.753906 26.648438 "/>
<path style=" stroke:none;fill-rule:nonzero;fill:rgb(60.392157%,60.784314%,61.568627%);fill-opacity:1;" d="M 17.84375 26.800781 L 17.917969 26.953125 Z M 17.84375 26.800781 "/>
<path style=" stroke:none;fill-rule:nonzero;fill:rgb(19.215686%,19.607843%,20%);fill-opacity:1;" d="M 20.042969 26.648438 L 20.273438 26.878906 Z M 20.042969 26.648438 "/>
<path style=" stroke:none;fill-rule:nonzero;fill:rgb(60.392157%,60.784314%,61.568627%);fill-opacity:1;" d="M 20.273438 26.648438 L 20.726562 27.332031 L 20.273438 26.648438 M 24.980469 26.726562 L 25.132812 26.800781 Z M 24.980469 26.726562 "/>
<path style=" stroke:none;fill-rule:nonzero;fill:rgb(38.431373%,38.431373%,38.823529%);fill-opacity:1;" d="M 25.285156 26.648438 L 25.285156 26.878906 L 26.195312 26.878906 Z M 25.285156 26.648438 "/>
<path style=" stroke:none;fill-rule:nonzero;fill:rgb(60.392157%,60.784314%,61.568627%);fill-opacity:1;" d="M 26.347656 26.726562 L 26.5 26.800781 Z M 26.347656 26.726562 "/>
<path style=" stroke:none;fill-rule:nonzero;fill:rgb(19.215686%,19.607843%,20%);fill-opacity:1;" d="M 8.882812 26.878906 L 9.109375 27.105469 Z M 8.882812 26.878906 "/>
<path style=" stroke:none;fill-rule:nonzero;fill:rgb(60.392157%,60.784314%,61.568627%);fill-opacity:1;" d="M 9.1875 27.03125 L 9.261719 27.179688 Z M 9.1875 27.03125 "/>
<path style=" stroke:none;fill-rule:nonzero;fill:rgb(19.215686%,19.607843%,20%);fill-opacity:1;" d="M 17.996094 26.878906 L 18.222656 27.105469 Z M 17.996094 26.878906 "/>
<path style=" stroke:none;fill-rule:nonzero;fill:rgb(38.431373%,38.431373%,38.823529%);fill-opacity:1;" d="M 8.882812 27.105469 L 8.882812 27.789062 L 9.109375 27.789062 L 8.882812 27.105469 M 17.84375 27.257812 L 17.917969 27.410156 Z M 17.84375 27.257812 "/>
<path style=" stroke:none;fill-rule:nonzero;fill:rgb(19.215686%,19.607843%,20%);fill-opacity:1;" d="M 20.273438 27.105469 L 20.5 27.332031 Z M 20.273438 27.105469 "/>
<path style=" stroke:none;fill-rule:nonzero;fill:rgb(60.392157%,60.784314%,61.568627%);fill-opacity:1;" d="M 17.613281 27.484375 L 17.691406 27.636719 Z M 17.613281 27.484375 "/>
<path style=" stroke:none;fill-rule:nonzero;fill:rgb(38.431373%,38.431373%,38.823529%);fill-opacity:1;" d="M 20.5 27.332031 L 20.726562 27.5625 Z M 20.5 27.332031 "/>
<path style=" stroke:none;fill-rule:nonzero;fill:rgb(19.215686%,19.607843%,20%);fill-opacity:1;" d="M 17.765625 27.5625 L 17.996094 27.789062 L 17.765625 27.5625 M 20.5 27.5625 L 21.183594 28.246094 Z M 20.5 27.5625 "/>
<path style=" stroke:none;fill-rule:nonzero;fill:rgb(60.392157%,60.784314%,61.568627%);fill-opacity:1;" d="M 20.726562 27.5625 L 20.957031 27.789062 Z M 20.726562 27.5625 "/>
<path style=" stroke:none;fill-rule:nonzero;fill:rgb(19.215686%,19.607843%,20%);fill-opacity:1;" d="M 8.960938 27.941406 L 9.035156 28.09375 Z M 8.960938 27.941406 "/>
<path style=" stroke:none;fill-rule:nonzero;fill:rgb(60.392157%,60.784314%,61.568627%);fill-opacity:1;" d="M 9.1875 27.941406 L 9.261719 28.09375 Z M 9.1875 27.941406 "/>
<path style=" stroke:none;fill-rule:nonzero;fill:rgb(38.431373%,38.431373%,38.823529%);fill-opacity:1;" d="M 17.539062 27.789062 L 17.765625 28.015625 Z M 17.539062 27.789062 "/>
<path style=" stroke:none;fill-rule:nonzero;fill:rgb(60.392157%,60.784314%,61.568627%);fill-opacity:1;" d="M 20.957031 27.789062 L 21.183594 28.015625 L 20.957031 27.789062 M 17.3125 28.015625 L 17.082031 28.472656 Z M 17.3125 28.015625 "/>
<path style=" stroke:none;fill-rule:nonzero;fill:rgb(19.215686%,19.607843%,20%);fill-opacity:1;" d="M 17.539062 28.015625 L 17.765625 28.246094 Z M 17.539062 28.015625 "/>
<path style=" stroke:none;fill-rule:nonzero;fill:rgb(60.392157%,60.784314%,61.568627%);fill-opacity:1;" d="M 21.183594 28.015625 L 22.320312 29.15625 Z M 21.183594 28.015625 "/>
<path style=" stroke:none;fill-rule:nonzero;fill:rgb(38.431373%,38.431373%,38.823529%);fill-opacity:1;" d="M 9.109375 28.246094 L 9.339844 28.472656 Z M 9.109375 28.246094 "/>
<path style=" stroke:none;fill-rule:nonzero;fill:rgb(19.215686%,19.607843%,20%);fill-opacity:1;" d="M 17.3125 28.246094 L 17.539062 28.472656 Z M 17.3125 28.246094 "/>
<path style=" stroke:none;fill-rule:nonzero;fill:rgb(38.431373%,38.431373%,38.823529%);fill-opacity:1;" d="M 21.183594 28.246094 L 21.410156 28.472656 Z M 21.183594 28.246094 "/>
<path style=" stroke:none;fill-rule:nonzero;fill:rgb(19.215686%,19.607843%,20%);fill-opacity:1;" d="M 9.109375 28.472656 L 10.023438 29.382812 Z M 9.109375 28.472656 "/>
<path style=" stroke:none;fill-rule:nonzero;fill:rgb(60.392157%,60.784314%,61.568627%);fill-opacity:1;" d="M 9.339844 28.472656 L 9.566406 28.699219 Z M 9.339844 28.472656 "/>
<path style=" stroke:none;fill-rule:nonzero;fill:rgb(38.431373%,38.431373%,38.823529%);fill-opacity:1;" d="M 17.082031 28.472656 L 16.398438 29.382812 L 17.082031 28.472656 M 21.410156 28.472656 L 21.640625 28.699219 Z M 21.410156 28.472656 "/>
<path style=" stroke:none;fill-rule:nonzero;fill:rgb(60.392157%,60.784314%,61.568627%);fill-opacity:1;" d="M 28.246094 28.472656 L 27.789062 29.15625 L 28.699219 28.929688 L 28.246094 28.472656 M 31.660156 28.472656 L 30.523438 29.609375 L 30.523438 29.839844 Z M 31.660156 28.472656 "/>
<path style=" stroke:none;fill-rule:nonzero;fill:rgb(19.215686%,19.607843%,20%);fill-opacity:1;" d="M 31.890625 28.472656 L 32.117188 28.699219 Z M 31.890625 28.472656 "/>
<path style=" stroke:none;fill-rule:nonzero;fill:rgb(60.392157%,60.784314%,61.568627%);fill-opacity:1;" d="M 9.566406 28.699219 L 9.792969 28.929688 Z M 9.566406 28.699219 "/>
<path style=" stroke:none;fill-rule:nonzero;fill:rgb(19.215686%,19.607843%,20%);fill-opacity:1;" d="M 17.082031 28.699219 L 17.3125 28.929688 Z M 17.082031 28.699219 "/>
<path style=" stroke:none;fill-rule:nonzero;fill:rgb(38.431373%,38.431373%,38.823529%);fill-opacity:1;" d="M 21.640625 28.699219 L 21.867188 28.929688 L 21.640625 28.699219 M 28.246094 28.699219 L 28.699219 29.15625 Z M 28.246094 28.699219 "/>
<path style=" stroke:none;fill-rule:nonzero;fill:rgb(60.392157%,60.784314%,61.568627%);fill-opacity:1;" d="M 9.792969 28.929688 L 10.023438 29.15625 L 9.792969 28.929688 M 16.398438 28.929688 L 16.628906 29.15625 Z M 16.398438 28.929688 "/>
<path style=" stroke:none;fill-rule:nonzero;fill:rgb(19.215686%,19.607843%,20%);fill-opacity:1;" d="M 16.855469 28.929688 L 17.082031 29.15625 L 16.855469 28.929688 M 21.867188 28.929688 L 22.09375 29.15625 L 21.867188 28.929688 M 28.167969 29.003906 L 28.320312 29.078125 L 28.167969 29.003906 M 31.660156 28.929688 L 31.890625 29.15625 Z M 31.660156 28.929688 "/>
<path style=" stroke:none;fill-rule:nonzero;fill:rgb(38.431373%,38.431373%,38.823529%);fill-opacity:1;" d="M 10.023438 29.15625 L 10.476562 29.609375 Z M 10.023438 29.15625 "/>
<path style=" stroke:none;fill-rule:nonzero;fill:rgb(60.392157%,60.784314%,61.568627%);fill-opacity:1;" d="M 10.25 29.15625 L 10.476562 29.382812 L 10.25 29.15625 M 16.171875 29.15625 L 15.261719 29.609375 L 15.261719 29.839844 L 16.398438 29.382812 Z M 16.171875 29.15625 "/>
<path style=" stroke:none;fill-rule:nonzero;fill:rgb(19.215686%,19.607843%,20%);fill-opacity:1;" d="M 22.09375 29.15625 L 22.320312 29.382812 Z M 22.09375 29.15625 "/>
<path style=" stroke:none;fill-rule:nonzero;fill:rgb(38.431373%,38.431373%,38.823529%);fill-opacity:1;" d="M 22.320312 29.15625 L 22.550781 29.382812 Z M 22.320312 29.15625 "/>
<path style=" stroke:none;fill-rule:nonzero;fill:rgb(60.392157%,60.784314%,61.568627%);fill-opacity:1;" d="M 22.550781 29.15625 L 22.777344 29.382812 L 22.550781 29.15625 M 27.332031 29.15625 L 27.105469 29.609375 Z M 27.332031 29.15625 "/>
<path style=" stroke:none;fill-rule:nonzero;fill:rgb(38.431373%,38.431373%,38.823529%);fill-opacity:1;" d="M 27.5625 29.15625 L 27.789062 29.382812 Z M 27.5625 29.15625 "/>
<path style=" stroke:none;fill-rule:nonzero;fill:rgb(19.215686%,19.607843%,20%);fill-opacity:1;" d="M 27.789062 29.15625 L 28.015625 29.382812 L 27.789062 29.15625 M 28.472656 29.15625 L 29.15625 29.839844 Z M 28.472656 29.15625 "/>
<path style=" stroke:none;fill-rule:nonzero;fill:rgb(60.392157%,60.784314%,61.568627%);fill-opacity:1;" d="M 28.699219 29.15625 L 28.929688 29.382812 Z M 28.699219 29.15625 "/>
<path style=" stroke:none;fill-rule:nonzero;fill:rgb(38.431373%,38.431373%,38.823529%);fill-opacity:1;" d="M 31.433594 29.15625 L 31.660156 29.382812 Z M 31.433594 29.15625 "/>
<path style=" stroke:none;fill-rule:nonzero;fill:rgb(60.392157%,60.784314%,61.568627%);fill-opacity:1;" d="M 10.476562 29.382812 L 10.476562 29.609375 L 11.390625 29.839844 L 11.390625 29.609375 Z M 10.476562 29.382812 "/>
<path style=" stroke:none;fill-rule:nonzero;fill:rgb(19.215686%,19.607843%,20%);fill-opacity:1;" d="M 16.171875 29.382812 L 16.398438 29.609375 L 16.171875 29.382812 M 22.550781 29.382812 L 22.777344 29.609375 Z M 22.550781 29.382812 "/>
<path style=" stroke:none;fill-rule:nonzero;fill:rgb(38.431373%,38.431373%,38.823529%);fill-opacity:1;" d="M 22.777344 29.382812 L 23.003906 29.609375 Z M 22.777344 29.382812 "/>
<path style=" stroke:none;fill-rule:nonzero;fill:rgb(60.392157%,60.784314%,61.568627%);fill-opacity:1;" d="M 23.003906 29.382812 L 23.234375 29.609375 Z M 23.003906 29.382812 "/>
<path style=" stroke:none;fill-rule:nonzero;fill:rgb(38.431373%,38.431373%,38.823529%);fill-opacity:1;" d="M 27.332031 29.382812 L 27.5625 29.609375 Z M 27.332031 29.382812 "/>
<path style=" stroke:none;fill-rule:nonzero;fill:rgb(60.392157%,60.784314%,61.568627%);fill-opacity:1;" d="M 28.929688 29.382812 L 29.15625 29.609375 Z M 28.929688 29.382812 "/>
<path style=" stroke:none;fill-rule:nonzero;fill:rgb(38.431373%,38.431373%,38.823529%);fill-opacity:1;" d="M 31.207031 29.382812 L 31.433594 29.609375 Z M 31.207031 29.382812 "/>
<path style=" stroke:none;fill-rule:nonzero;fill:rgb(19.215686%,19.607843%,20%);fill-opacity:1;" d="M 10.707031 29.609375 L 10.933594 29.839844 L 10.707031 29.609375 M 15.714844 29.609375 L 15.945312 29.839844 L 15.714844 29.609375 M 23.003906 29.609375 L 23.234375 29.839844 Z M 23.003906 29.609375 "/>
<path style=" stroke:none;fill-rule:nonzero;fill:rgb(38.431373%,38.431373%,38.823529%);fill-opacity:1;" d="M 23.234375 29.609375 L 23.460938 29.839844 Z M 23.234375 29.609375 "/>
<path style=" stroke:none;fill-rule:nonzero;fill:rgb(60.392157%,60.784314%,61.568627%);fill-opacity:1;" d="M 23.613281 29.6875 L 23.765625 29.761719 L 23.613281 29.6875 M 26.574219 29.6875 L 26.726562 29.761719 Z M 26.574219 29.6875 "/>
<path style=" stroke:none;fill-rule:nonzero;fill:rgb(38.431373%,38.431373%,38.823529%);fill-opacity:1;" d="M 26.878906 29.609375 L 27.105469 29.839844 L 26.878906 29.609375 M 29.15625 29.609375 L 29.382812 29.839844 Z M 29.15625 29.609375 "/>
<path style=" stroke:none;fill-rule:nonzero;fill:rgb(60.392157%,60.784314%,61.568627%);fill-opacity:1;" d="M 29.535156 29.6875 L 29.6875 29.761719 Z M 29.535156 29.6875 "/>
<path style=" stroke:none;fill-rule:nonzero;fill:rgb(19.215686%,19.607843%,20%);fill-opacity:1;" d="M 30.976562 29.609375 L 31.207031 29.839844 L 30.976562 29.609375 M 11.160156 29.839844 L 11.390625 30.066406 Z M 11.160156 29.839844 "/>
<path style=" stroke:none;fill-rule:nonzero;fill:rgb(38.431373%,38.431373%,38.823529%);fill-opacity:1;" d="M 11.539062 29.914062 L 11.691406 29.992188 Z M 11.539062 29.914062 "/>
<path style=" stroke:none;fill-rule:nonzero;fill:rgb(60.392157%,60.784314%,61.568627%);fill-opacity:1;" d="M 11.84375 29.839844 L 11.84375 30.066406 L 12.753906 30.066406 L 11.84375 29.839844 M 14.351562 29.839844 L 14.351562 30.066406 L 15.035156 30.066406 Z M 14.351562 29.839844 "/>
<path style=" stroke:none;fill-rule:nonzero;fill:rgb(38.431373%,38.431373%,38.823529%);fill-opacity:1;" d="M 15.035156 29.839844 L 15.261719 30.066406 Z M 15.035156 29.839844 "/>
<path style=" stroke:none;fill-rule:nonzero;fill:rgb(19.215686%,19.607843%,20%);fill-opacity:1;" d="M 15.261719 29.839844 L 15.488281 30.066406 L 15.261719 29.839844 M 23.6875 29.839844 L 23.917969 30.066406 Z M 23.6875 29.839844 "/>
<path style=" stroke:none;fill-rule:nonzero;fill:rgb(38.431373%,38.431373%,38.823529%);fill-opacity:1;" d="M 23.917969 29.839844 L 24.144531 30.066406 Z M 23.917969 29.839844 "/>
<path style=" stroke:none;fill-rule:nonzero;fill:rgb(60.392157%,60.784314%,61.568627%);fill-opacity:1;" d="M 24.144531 29.839844 L 24.144531 30.066406 L 26.195312 30.066406 Z M 24.144531 29.839844 "/>
<path style=" stroke:none;fill-rule:nonzero;fill:rgb(38.431373%,38.431373%,38.823529%);fill-opacity:1;" d="M 26.195312 29.839844 L 26.421875 30.066406 Z M 26.195312 29.839844 "/>
<path style=" stroke:none;fill-rule:nonzero;fill:rgb(19.215686%,19.607843%,20%);fill-opacity:1;" d="M 26.421875 29.839844 L 26.648438 30.066406 L 26.421875 29.839844 M 29.535156 29.914062 L 29.6875 29.992188 Z M 29.535156 29.914062 "/>
<path style=" stroke:none;fill-rule:nonzero;fill:rgb(38.431373%,38.431373%,38.823529%);fill-opacity:1;" d="M 29.839844 29.839844 L 29.839844 30.066406 L 30.523438 30.066406 Z M 29.839844 29.839844 "/>
<path style=" stroke:none;fill-rule:nonzero;fill:rgb(19.215686%,19.607843%,20%);fill-opacity:1;" d="M 30.523438 29.839844 L 30.75 30.066406 L 30.523438 29.839844 M 12.453125 30.140625 L 12.605469 30.21875 Z M 12.453125 30.140625 "/>
<path style=" stroke:none;fill-rule:nonzero;fill:rgb(38.431373%,38.431373%,38.823529%);fill-opacity:1;" d="M 12.753906 30.066406 L 12.753906 30.292969 L 14.121094 30.292969 Z M 12.753906 30.066406 "/>
<path style=" stroke:none;fill-rule:nonzero;fill:rgb(19.215686%,19.607843%,20%);fill-opacity:1;" d="M 14.273438 30.140625 L 14.425781 30.21875 Z M 14.273438 30.140625 "/>
</g>
</svg>
