<?xml version="1.0" encoding="UTF-8"?>
<svg xmlns="http://www.w3.org/2000/svg" xmlns:xlink="http://www.w3.org/1999/xlink" width="41px" height="41px" viewBox="0 0 41 41" version="1.1">
<g id="surface1">
<path style=" stroke:none;fill-rule:nonzero;fill:rgb(0%,0%,0%);fill-opacity:1;" d="M 22.960938 0.0507812 C 22.734375 0.125 22.449219 0.410156 22.308594 0.699219 C 22.183594 0.96875 22.144531 1.132812 22.003906 1.828125 C 21.917969 2.273438 21.878906 2.4375 21.878906 2.332031 C 21.878906 2.316406 21.773438 2.113281 21.648438 1.878906 C 21.167969 0.992188 21.003906 0.660156 20.882812 0.375 L 20.757812 0.0820312 L 20.460938 0.0898438 C 19.714844 0.121094 19.210938 0.511719 19.085938 1.164062 C 19.066406 1.261719 19.058594 1.351562 19.066406 1.359375 C 19.078125 1.371094 19.1875 1.324219 19.3125 1.261719 C 19.523438 1.152344 19.539062 1.132812 19.539062 1.035156 C 19.539062 0.910156 19.644531 0.667969 19.742188 0.5625 C 19.839844 0.453125 20.011719 0.371094 20.1875 0.34375 C 20.316406 0.324219 20.339844 0.328125 20.339844 0.375 C 20.339844 0.492188 19.957031 2.375 19.910156 2.492188 C 19.847656 2.640625 19.6875 2.832031 19.566406 2.894531 C 19.359375 3.003906 19.066406 2.925781 18.898438 2.714844 L 18.800781 2.597656 L 18.621094 2.785156 L 18.441406 2.96875 L 18.609375 3.066406 C 19.054688 3.324219 19.570312 3.246094 19.9375 2.859375 C 20.234375 2.550781 20.441406 2.019531 20.570312 1.25 C 20.589844 1.121094 20.617188 1.011719 20.628906 1.011719 C 20.640625 1.011719 20.671875 1.070312 20.703125 1.132812 C 20.738281 1.203125 20.941406 1.582031 21.160156 1.980469 C 21.378906 2.375 21.613281 2.832031 21.6875 2.988281 C 21.832031 3.292969 21.824219 3.292969 22.050781 3.207031 C 22.132812 3.171875 22.132812 3.171875 22.214844 2.679688 C 22.351562 1.863281 22.589844 0.757812 22.664062 0.597656 C 22.808594 0.292969 23.054688 0.203125 23.304688 0.355469 C 23.398438 0.414062 23.429688 0.417969 23.453125 0.386719 C 23.496094 0.324219 23.605469 0.105469 23.605469 0.0859375 C 23.605469 0.0546875 23.367188 0 23.238281 0.00390625 C 23.167969 0.00390625 23.042969 0.0273438 22.960938 0.0507812 Z M 22.960938 0.0507812 "/>
<path style=" stroke:none;fill-rule:nonzero;fill:rgb(0%,0%,0%);fill-opacity:1;" d="M 21.003906 3.746094 C 20.988281 3.757812 20.980469 3.851562 20.980469 3.953125 C 20.980469 4.097656 20.667969 6.464844 20.644531 6.496094 C 20.632812 6.515625 19.78125 6.570312 19.769531 6.554688 C 19.753906 6.539062 19.511719 4.140625 19.507812 3.992188 C 19.507812 3.925781 19.433594 3.894531 19.398438 3.953125 C 19.382812 3.972656 19.570312 6.074219 19.617188 6.429688 C 19.640625 6.589844 19.65625 6.582031 19.226562 6.636719 C 19.0625 6.65625 18.820312 6.691406 18.683594 6.714844 C 18.550781 6.742188 18.433594 6.761719 18.429688 6.757812 C 18.425781 6.753906 18.3125 6.175781 18.175781 5.476562 C 18.039062 4.773438 17.917969 4.191406 17.910156 4.175781 C 17.898438 4.164062 17.871094 4.167969 17.84375 4.179688 C 17.808594 4.203125 17.84375 4.433594 18.050781 5.488281 C 18.1875 6.191406 18.292969 6.773438 18.285156 6.777344 C 18.28125 6.78125 18.035156 6.847656 17.746094 6.917969 C 17.453125 6.996094 17.195312 7.0625 17.167969 7.074219 C 17.125 7.09375 17.019531 6.773438 16.429688 4.765625 C 16.378906 4.601562 16.355469 4.550781 16.320312 4.566406 C 16.292969 4.574219 16.273438 4.601562 16.273438 4.625 C 16.273438 4.660156 16.878906 6.742188 16.976562 7.035156 L 17.003906 7.121094 L 16.648438 7.242188 C 16.449219 7.3125 16.191406 7.40625 16.070312 7.457031 L 15.855469 7.546875 L 15.804688 7.425781 C 15.773438 7.359375 15.726562 7.238281 15.695312 7.15625 C 15.664062 7.078125 15.476562 6.617188 15.277344 6.132812 C 15.082031 5.652344 14.910156 5.21875 14.894531 5.175781 C 14.875 5.125 14.847656 5.105469 14.8125 5.117188 C 14.789062 5.128906 14.765625 5.152344 14.765625 5.167969 C 14.765625 5.183594 14.976562 5.714844 15.234375 6.351562 C 15.75 7.617188 15.75 7.617188 15.699219 7.617188 C 15.679688 7.617188 15.433594 7.726562 15.152344 7.867188 C 14.867188 8.003906 14.632812 8.109375 14.625 8.101562 C 14.621094 8.097656 14.347656 7.574219 14.015625 6.9375 C 13.589844 6.128906 13.398438 5.796875 13.371094 5.808594 C 13.34375 5.816406 13.324219 5.835938 13.324219 5.855469 C 13.324219 5.875 13.59375 6.402344 13.921875 7.03125 C 14.25 7.65625 14.511719 8.179688 14.507812 8.183594 C 14.5 8.191406 14.328125 8.296875 14.125 8.417969 C 13.925781 8.539062 13.695312 8.679688 13.621094 8.734375 L 13.488281 8.824219 L 12.792969 7.773438 C 12.414062 7.191406 12.078125 6.695312 12.054688 6.667969 C 12.019531 6.632812 12.003906 6.632812 11.976562 6.65625 C 11.949219 6.6875 12.109375 6.957031 12.644531 7.777344 C 13.035156 8.367188 13.355469 8.867188 13.355469 8.882812 C 13.355469 8.898438 13.273438 8.96875 13.175781 9.039062 C 13.070312 9.109375 12.855469 9.273438 12.695312 9.402344 L 12.398438 9.636719 L 11.574219 8.609375 C 10.871094 7.738281 10.738281 7.589844 10.703125 7.628906 C 10.667969 7.667969 10.78125 7.824219 11.480469 8.695312 L 12.304688 9.714844 L 12.148438 9.847656 C 12.066406 9.921875 11.902344 10.074219 11.789062 10.179688 C 11.671875 10.289062 11.539062 10.414062 11.488281 10.460938 L 11.398438 10.539062 L 10.496094 9.617188 C 10 9.109375 9.578125 8.695312 9.554688 8.695312 C 9.421875 8.695312 9.550781 8.84375 10.390625 9.703125 L 11.308594 10.640625 L 11.027344 10.949219 C 10.871094 11.121094 10.691406 11.324219 10.628906 11.402344 C 10.5625 11.484375 10.492188 11.539062 10.46875 11.527344 C 10.445312 11.519531 9.992188 11.148438 9.46875 10.703125 C 8.941406 10.261719 8.496094 9.90625 8.480469 9.914062 C 8.460938 9.917969 8.441406 9.941406 8.433594 9.960938 C 8.425781 9.980469 10.035156 11.363281 10.371094 11.621094 C 10.414062 11.652344 10.390625 11.695312 10.242188 11.882812 C 10.148438 12.007812 9.992188 12.222656 9.898438 12.355469 C 9.804688 12.488281 9.714844 12.613281 9.703125 12.625 C 9.691406 12.640625 9.203125 12.328125 8.617188 11.929688 C 7.660156 11.28125 7.464844 11.164062 7.464844 11.269531 C 7.464844 11.285156 7.945312 11.625 8.535156 12.027344 C 9.125 12.429688 9.609375 12.761719 9.609375 12.765625 C 9.609375 12.773438 9.527344 12.914062 9.421875 13.082031 C 9.320312 13.246094 9.179688 13.484375 9.117188 13.605469 L 8.996094 13.824219 L 8.605469 13.617188 C 8.390625 13.503906 7.875 13.222656 7.464844 12.996094 C 7.054688 12.773438 6.699219 12.59375 6.6875 12.601562 C 6.675781 12.613281 6.664062 12.640625 6.664062 12.664062 C 6.664062 12.683594 7.171875 12.984375 7.792969 13.320312 L 8.925781 13.9375 L 8.710938 14.398438 C 8.597656 14.648438 8.480469 14.902344 8.453125 14.960938 L 8.40625 15.066406 L 7.253906 14.574219 C 5.878906 13.992188 5.988281 14.035156 5.988281 14.113281 C 5.988281 14.164062 6.1875 14.261719 7.167969 14.675781 C 7.816406 14.949219 8.347656 15.175781 8.355469 15.183594 C 8.355469 15.183594 8.304688 15.335938 8.238281 15.511719 C 8.171875 15.6875 8.082031 15.949219 8.035156 16.085938 C 7.996094 16.226562 7.949219 16.34375 7.941406 16.34375 C 7.925781 16.34375 7.394531 16.179688 6.753906 15.984375 C 5.316406 15.535156 5.445312 15.566406 5.445312 15.644531 C 5.445312 15.703125 5.601562 15.761719 6.644531 16.082031 C 7.304688 16.285156 7.859375 16.460938 7.878906 16.472656 C 7.90625 16.488281 7.890625 16.578125 7.835938 16.785156 C 7.789062 16.945312 7.722656 17.214844 7.6875 17.382812 C 7.628906 17.628906 7.605469 17.683594 7.566406 17.667969 C 7.535156 17.660156 6.992188 17.546875 6.359375 17.425781 C 5.722656 17.296875 5.171875 17.1875 5.132812 17.175781 C 5.078125 17.164062 5.0625 17.171875 5.0625 17.226562 C 5.0625 17.261719 5.070312 17.289062 5.085938 17.289062 C 5.097656 17.292969 5.664062 17.40625 6.34375 17.546875 C 7.566406 17.800781 7.574219 17.800781 7.570312 17.882812 C 7.570312 17.925781 7.535156 18.199219 7.492188 18.488281 C 7.417969 19.019531 7.414062 19.023438 7.335938 19.023438 C 7.289062 19.019531 6.710938 18.964844 6.046875 18.898438 C 4.914062 18.785156 4.835938 18.777344 4.835938 18.832031 C 4.835938 18.867188 4.867188 18.898438 4.910156 18.90625 C 4.949219 18.914062 5.523438 18.972656 6.183594 19.039062 C 6.84375 19.105469 7.386719 19.164062 7.394531 19.167969 C 7.394531 19.171875 7.394531 19.378906 7.378906 19.621094 L 7.359375 20.070312 L 7.257812 20.085938 C 6.824219 20.164062 5.296875 20.371094 5.023438 20.390625 C 4.691406 20.414062 4.609375 20.433594 4.652344 20.480469 C 4.667969 20.492188 4.808594 20.515625 4.972656 20.53125 C 5.132812 20.546875 5.738281 20.628906 6.308594 20.714844 L 7.351562 20.871094 L 7.375 21.308594 C 7.390625 21.546875 7.394531 21.75 7.386719 21.757812 C 7.378906 21.769531 4.949219 22.027344 4.847656 22.03125 C 4.839844 22.03125 4.835938 22.058594 4.835938 22.097656 C 4.835938 22.15625 4.847656 22.164062 4.972656 22.144531 C 5.210938 22.113281 7.410156 21.894531 7.414062 21.90625 C 7.417969 21.910156 7.453125 22.152344 7.492188 22.4375 C 7.53125 22.726562 7.570312 22.996094 7.578125 23.042969 L 7.59375 23.125 L 6.328125 23.382812 C 5.203125 23.613281 5.0625 23.648438 5.0625 23.699219 C 5.0625 23.734375 5.074219 23.761719 5.085938 23.761719 C 5.097656 23.761719 5.671875 23.648438 6.363281 23.507812 L 7.613281 23.253906 L 7.757812 23.839844 C 7.839844 24.167969 7.894531 24.441406 7.882812 24.453125 C 7.875 24.464844 7.324219 24.640625 6.664062 24.84375 C 5.578125 25.179688 5.390625 25.253906 5.457031 25.320312 C 5.476562 25.34375 5.5625 25.316406 6.949219 24.890625 C 7.433594 24.738281 7.855469 24.613281 7.890625 24.605469 C 7.941406 24.597656 7.976562 24.667969 8.101562 25.035156 C 8.183594 25.277344 8.277344 25.535156 8.308594 25.605469 C 8.351562 25.707031 8.355469 25.738281 8.320312 25.757812 C 8.300781 25.773438 7.765625 26 7.144531 26.265625 C 6.519531 26.527344 5.996094 26.753906 5.984375 26.765625 C 5.96875 26.777344 5.972656 26.804688 5.988281 26.832031 C 6.007812 26.867188 6.253906 26.777344 7.203125 26.375 C 7.855469 26.101562 8.398438 25.882812 8.40625 25.890625 C 8.410156 25.894531 8.53125 26.148438 8.671875 26.449219 L 8.929688 26.992188 L 7.796875 27.609375 C 7.175781 27.945312 6.664062 28.238281 6.664062 28.261719 C 6.664062 28.28125 6.675781 28.308594 6.691406 28.320312 C 6.707031 28.332031 7.234375 28.058594 7.855469 27.722656 L 8.984375 27.105469 L 9.035156 27.191406 C 9.066406 27.238281 9.171875 27.417969 9.269531 27.585938 C 9.367188 27.757812 9.484375 27.957031 9.53125 28.035156 L 9.613281 28.171875 L 8.546875 28.898438 C 7.960938 29.296875 7.472656 29.625 7.464844 29.632812 C 7.460938 29.640625 7.472656 29.664062 7.492188 29.691406 C 7.527344 29.734375 7.695312 29.628906 8.609375 29.007812 L 9.6875 28.277344 L 9.847656 28.507812 C 9.9375 28.636719 10.097656 28.859375 10.210938 29.003906 C 10.371094 29.214844 10.402344 29.273438 10.371094 29.304688 C 10.347656 29.328125 9.902344 29.699219 9.386719 30.136719 C 8.867188 30.570312 8.4375 30.9375 8.433594 30.945312 C 8.425781 30.960938 8.4375 30.988281 8.453125 31.011719 C 8.472656 31.042969 8.738281 30.839844 9.484375 30.214844 L 10.488281 29.375 L 10.683594 29.597656 C 10.789062 29.722656 10.96875 29.925781 11.089844 30.054688 L 11.304688 30.28125 L 10.386719 31.21875 C 9.574219 32.050781 9.476562 32.164062 9.511719 32.210938 C 9.550781 32.261719 9.65625 32.160156 10.476562 31.324219 L 11.398438 30.386719 L 11.726562 30.695312 C 11.90625 30.863281 12.109375 31.054688 12.175781 31.117188 L 12.296875 31.230469 L 11.480469 32.242188 C 10.816406 33.0625 10.671875 33.257812 10.703125 33.296875 C 10.753906 33.355469 10.6875 33.425781 11.609375 32.277344 C 12.03125 31.753906 12.382812 31.324219 12.394531 31.320312 C 12.40625 31.316406 12.53125 31.402344 12.675781 31.515625 C 12.816406 31.628906 13.027344 31.785156 13.140625 31.867188 C 13.261719 31.949219 13.355469 32.023438 13.355469 32.042969 C 13.355469 32.054688 13.039062 32.550781 12.648438 33.144531 C 12.039062 34.078125 11.949219 34.234375 11.984375 34.277344 C 12.023438 34.316406 12.132812 34.167969 12.75 33.222656 C 13.140625 32.621094 13.472656 32.128906 13.488281 32.128906 C 13.5 32.128906 13.644531 32.214844 13.808594 32.320312 C 13.976562 32.425781 14.199219 32.5625 14.308594 32.621094 C 14.421875 32.683594 14.511719 32.742188 14.511719 32.757812 C 14.511719 32.765625 14.242188 33.285156 13.914062 33.910156 C 13.375 34.9375 13.289062 35.136719 13.386719 35.136719 C 13.402344 35.136719 13.671875 34.644531 13.980469 34.046875 C 14.296875 33.453125 14.570312 32.929688 14.59375 32.890625 L 14.636719 32.820312 L 15.0625 33.027344 C 15.292969 33.140625 15.542969 33.257812 15.613281 33.285156 C 15.707031 33.324219 15.730469 33.351562 15.710938 33.394531 C 15.703125 33.425781 15.480469 33.972656 15.222656 34.605469 C 14.867188 35.480469 14.765625 35.769531 14.792969 35.796875 C 14.816406 35.824219 14.839844 35.824219 14.859375 35.804688 C 14.871094 35.785156 15.097656 35.25 15.355469 34.613281 C 15.613281 33.976562 15.839844 33.441406 15.851562 33.425781 C 15.863281 33.414062 15.984375 33.441406 16.113281 33.496094 C 16.246094 33.546875 16.492188 33.640625 16.664062 33.695312 C 16.898438 33.773438 16.976562 33.816406 16.972656 33.855469 C 16.972656 33.882812 16.808594 34.453125 16.613281 35.121094 C 16.316406 36.109375 16.257812 36.335938 16.292969 36.355469 C 16.320312 36.371094 16.347656 36.378906 16.355469 36.367188 C 16.367188 36.355469 16.46875 36.027344 16.898438 34.597656 C 17.015625 34.203125 17.113281 33.871094 17.121094 33.867188 C 17.136719 33.851562 18.234375 34.128906 18.265625 34.160156 C 18.285156 34.167969 18.183594 34.75 18.050781 35.445312 C 17.875 36.355469 17.8125 36.722656 17.839844 36.746094 C 17.859375 36.769531 17.882812 36.769531 17.902344 36.75 C 17.914062 36.734375 18.035156 36.15625 18.171875 35.464844 C 18.304688 34.777344 18.425781 34.203125 18.433594 34.195312 C 18.445312 34.183594 18.589844 34.203125 18.765625 34.230469 C 18.933594 34.261719 19.195312 34.300781 19.347656 34.324219 C 19.496094 34.34375 19.621094 34.359375 19.625 34.363281 C 19.628906 34.363281 19.574219 34.949219 19.503906 35.660156 C 19.4375 36.367188 19.378906 36.960938 19.378906 36.972656 C 19.378906 36.988281 19.40625 37 19.441406 37 C 19.476562 37 19.507812 36.976562 19.507812 36.953125 C 19.507812 36.878906 19.730469 34.578125 19.746094 34.464844 L 19.761719 34.367188 L 20.207031 34.398438 L 20.648438 34.425781 L 20.8125 35.640625 C 20.90625 36.304688 20.980469 36.921875 20.980469 37.007812 C 20.980469 37.144531 21.023438 37.230469 21.066406 37.183594 C 21.078125 37.171875 21.097656 37.007812 21.109375 36.8125 C 21.132812 36.511719 21.363281 34.769531 21.417969 34.511719 C 21.433594 34.425781 21.433594 34.425781 21.863281 34.398438 C 22.105469 34.382812 22.304688 34.375 22.308594 34.382812 C 22.316406 34.394531 22.375 34.980469 22.441406 35.6875 C 22.558594 36.933594 22.585938 37.070312 22.667969 36.984375 C 22.679688 36.976562 22.632812 36.386719 22.566406 35.675781 C 22.5 34.964844 22.449219 34.378906 22.460938 34.367188 C 22.464844 34.359375 22.589844 34.339844 22.730469 34.320312 C 22.867188 34.300781 23.125 34.261719 23.296875 34.230469 C 23.480469 34.199219 23.621094 34.1875 23.636719 34.207031 C 23.652344 34.222656 23.769531 34.804688 23.90625 35.488281 C 24.039062 36.179688 24.15625 36.75 24.164062 36.761719 C 24.171875 36.769531 24.199219 36.765625 24.222656 36.746094 C 24.261719 36.726562 24.226562 36.496094 24.019531 35.445312 C 23.886719 34.742188 23.78125 34.164062 23.789062 34.144531 C 23.796875 34.132812 23.828125 34.125 23.855469 34.125 C 23.886719 34.125 24.113281 34.070312 24.359375 34.003906 C 24.605469 33.941406 24.839844 33.882812 24.878906 33.871094 C 24.957031 33.851562 24.941406 33.8125 25.453125 35.539062 C 25.589844 36 25.710938 36.378906 25.722656 36.378906 C 25.730469 36.378906 25.757812 36.367188 25.777344 36.351562 C 25.8125 36.328125 25.789062 36.21875 25.675781 35.851562 C 25.359375 34.800781 25.074219 33.824219 25.085938 33.8125 C 25.089844 33.808594 25.261719 33.742188 25.464844 33.671875 C 25.667969 33.601562 25.917969 33.507812 26.019531 33.464844 C 26.117188 33.425781 26.207031 33.402344 26.21875 33.40625 C 26.230469 33.421875 26.84375 34.929688 27.089844 35.535156 C 27.1875 35.792969 27.253906 35.875 27.304688 35.796875 C 27.308594 35.785156 27.09375 35.226562 26.828125 34.5625 L 26.335938 33.355469 L 26.882812 33.082031 C 27.1875 32.933594 27.4375 32.828125 27.449219 32.84375 C 27.460938 32.863281 27.734375 33.386719 28.058594 34.003906 C 28.386719 34.625 28.660156 35.136719 28.667969 35.136719 C 28.675781 35.136719 28.703125 35.125 28.726562 35.105469 C 28.765625 35.085938 28.667969 34.886719 27.703125 33.054688 L 27.542969 32.753906 L 27.777344 32.617188 C 27.90625 32.542969 28.132812 32.402344 28.285156 32.304688 C 28.433594 32.207031 28.570312 32.128906 28.582031 32.128906 C 28.59375 32.128906 28.921875 32.617188 29.3125 33.210938 C 29.832031 34.011719 30.027344 34.285156 30.066406 34.273438 C 30.09375 34.261719 30.121094 34.253906 30.128906 34.253906 C 30.136719 34.253906 29.828125 33.773438 29.441406 33.183594 C 29.058594 32.59375 28.734375 32.097656 28.722656 32.074219 C 28.707031 32.050781 28.8125 31.953125 29.011719 31.804688 C 29.183594 31.679688 29.402344 31.515625 29.496094 31.441406 C 29.636719 31.320312 29.671875 31.308594 29.710938 31.347656 C 29.730469 31.375 30.101562 31.828125 30.527344 32.359375 C 30.953125 32.886719 31.3125 33.324219 31.328125 33.332031 C 31.347656 33.339844 31.367188 33.324219 31.378906 33.292969 C 31.390625 33.261719 31.136719 32.921875 30.617188 32.277344 C 30.1875 31.742188 29.824219 31.285156 29.804688 31.261719 C 29.78125 31.21875 29.8125 31.179688 29.949219 31.058594 C 30.046875 30.976562 30.242188 30.789062 30.390625 30.644531 L 30.65625 30.382812 L 31.191406 30.921875 C 32.476562 32.21875 32.511719 32.25 32.550781 32.203125 C 32.578125 32.164062 32.410156 31.976562 31.683594 31.238281 C 31.1875 30.730469 30.78125 30.300781 30.78125 30.285156 C 30.78125 30.269531 30.894531 30.136719 31.03125 29.992188 C 31.167969 29.84375 31.347656 29.644531 31.429688 29.546875 L 31.578125 29.371094 L 31.808594 29.5625 C 31.9375 29.671875 32.390625 30.050781 32.8125 30.402344 C 33.410156 30.902344 33.589844 31.039062 33.625 31.011719 C 33.652344 30.988281 33.65625 30.960938 33.636719 30.941406 C 33.621094 30.921875 33.171875 30.542969 32.644531 30.101562 C 32.113281 29.660156 31.683594 29.285156 31.683594 29.269531 C 31.679688 29.25 31.75 29.148438 31.832031 29.039062 C 31.914062 28.933594 32.074219 28.71875 32.1875 28.558594 L 32.386719 28.273438 L 33.464844 29.007812 C 34.476562 29.699219 34.589844 29.761719 34.59375 29.644531 C 34.59375 29.636719 34.113281 29.296875 33.523438 28.898438 L 32.449219 28.164062 L 32.578125 27.964844 C 32.648438 27.855469 32.789062 27.621094 32.882812 27.449219 C 32.984375 27.273438 33.074219 27.128906 33.09375 27.128906 C 33.109375 27.128906 33.628906 27.402344 34.246094 27.738281 C 35.136719 28.21875 35.375 28.335938 35.394531 28.300781 C 35.410156 28.277344 35.414062 28.246094 35.402344 28.234375 C 35.386719 28.222656 34.886719 27.945312 34.289062 27.617188 C 33.691406 27.292969 33.191406 27.015625 33.175781 27 C 33.160156 26.988281 33.25 26.765625 33.375 26.503906 C 33.496094 26.246094 33.605469 26 33.613281 25.957031 C 33.625 25.917969 33.652344 25.886719 33.667969 25.886719 C 33.6875 25.886719 34.226562 26.109375 34.871094 26.378906 C 35.652344 26.710938 36.054688 26.859375 36.074219 26.839844 C 36.09375 26.820312 36.097656 26.796875 36.089844 26.777344 C 36.078125 26.761719 35.539062 26.523438 34.886719 26.25 L 33.707031 25.75 L 33.808594 25.484375 C 33.863281 25.335938 33.957031 25.074219 34.015625 24.894531 C 34.078125 24.699219 34.136719 24.578125 34.15625 24.589844 C 34.175781 24.59375 34.730469 24.769531 35.390625 24.972656 C 36.527344 25.324219 36.644531 25.351562 36.609375 25.242188 C 36.605469 25.226562 36.050781 25.046875 35.382812 24.835938 C 34.480469 24.554688 34.164062 24.445312 34.175781 24.414062 C 34.179688 24.386719 34.246094 24.121094 34.316406 23.820312 C 34.410156 23.433594 34.460938 23.273438 34.496094 23.273438 C 34.519531 23.273438 35.089844 23.382812 35.757812 23.515625 C 36.707031 23.710938 36.980469 23.753906 37 23.722656 C 37.015625 23.699219 37.015625 23.671875 37.003906 23.65625 C 36.988281 23.648438 36.417969 23.523438 35.730469 23.382812 C 35.046875 23.246094 34.476562 23.128906 34.476562 23.128906 C 34.476562 23.125 34.496094 22.972656 34.53125 22.78125 C 34.5625 22.59375 34.601562 22.332031 34.609375 22.207031 C 34.621094 22.078125 34.640625 21.957031 34.65625 21.9375 C 34.671875 21.910156 34.992188 21.929688 35.8125 22.011719 C 36.4375 22.074219 37.015625 22.132812 37.101562 22.148438 C 37.238281 22.164062 37.253906 22.160156 37.253906 22.097656 C 37.253906 22.058594 37.242188 22.03125 37.230469 22.03125 C 37.148438 22.03125 34.679688 21.769531 34.671875 21.761719 C 34.660156 21.75 34.722656 20.875 34.730469 20.867188 C 34.753906 20.847656 37.078125 20.527344 37.1875 20.527344 C 37.335938 20.527344 37.445312 20.484375 37.402344 20.441406 C 37.390625 20.429688 37.234375 20.40625 37.050781 20.390625 C 36.738281 20.367188 34.761719 20.085938 34.738281 20.0625 C 34.726562 20.050781 34.65625 19.175781 34.667969 19.167969 C 34.671875 19.164062 35.246094 19.101562 35.949219 19.03125 C 36.648438 18.960938 37.230469 18.890625 37.238281 18.882812 C 37.253906 18.871094 37.253906 18.84375 37.242188 18.816406 C 37.230469 18.78125 37.183594 18.777344 37.003906 18.796875 C 36.886719 18.808594 36.3125 18.867188 35.734375 18.929688 C 34.902344 19.007812 34.675781 19.023438 34.65625 18.988281 C 34.644531 18.96875 34.621094 18.847656 34.613281 18.726562 C 34.601562 18.601562 34.566406 18.34375 34.53125 18.152344 C 34.492188 17.90625 34.484375 17.804688 34.511719 17.796875 C 34.53125 17.789062 35.035156 17.6875 35.632812 17.566406 C 37.148438 17.265625 37.023438 17.296875 37.003906 17.226562 C 36.992188 17.179688 36.96875 17.167969 36.917969 17.175781 C 36.757812 17.214844 34.453125 17.679688 34.449219 17.671875 C 34.445312 17.667969 34.40625 17.496094 34.359375 17.289062 C 34.316406 17.085938 34.246094 16.816406 34.210938 16.695312 L 34.152344 16.476562 L 34.25 16.445312 C 34.308594 16.425781 34.855469 16.253906 35.46875 16.066406 C 36.082031 15.875 36.597656 15.714844 36.613281 15.707031 C 36.660156 15.675781 36.609375 15.585938 36.550781 15.605469 C 36.523438 15.613281 35.96875 15.785156 35.316406 15.984375 C 34.671875 16.183594 34.132812 16.34375 34.125 16.335938 C 34.121094 16.328125 34.050781 16.140625 33.976562 15.917969 C 33.894531 15.691406 33.804688 15.4375 33.773438 15.351562 C 33.726562 15.226562 33.722656 15.1875 33.753906 15.167969 C 33.777344 15.15625 34.316406 14.925781 34.945312 14.660156 C 35.582031 14.390625 36.097656 14.164062 36.097656 14.15625 C 36.097656 14.035156 35.871094 14.117188 33.785156 15.011719 L 33.660156 15.066406 L 33.59375 14.910156 C 33.558594 14.824219 33.445312 14.578125 33.339844 14.355469 C 33.234375 14.136719 33.152344 13.949219 33.152344 13.945312 C 33.152344 13.9375 33.664062 13.652344 34.289062 13.316406 C 34.914062 12.976562 35.425781 12.691406 35.425781 12.683594 C 35.425781 12.671875 35.414062 12.644531 35.398438 12.621094 C 35.378906 12.585938 35.101562 12.722656 34.226562 13.203125 C 33.597656 13.546875 33.078125 13.824219 33.074219 13.820312 C 33.070312 13.8125 33 13.683594 32.914062 13.53125 C 32.828125 13.382812 32.6875 13.144531 32.605469 13.011719 L 32.453125 12.765625 L 33.5 12.050781 C 34.074219 11.660156 34.558594 11.320312 34.578125 11.304688 C 34.59375 11.285156 34.59375 11.261719 34.566406 11.238281 C 34.539062 11.207031 34.28125 11.371094 33.453125 11.929688 C 32.5625 12.539062 32.375 12.65625 32.347656 12.613281 C 32.335938 12.582031 32.183594 12.371094 32.011719 12.140625 C 31.84375 11.90625 31.699219 11.703125 31.6875 11.679688 C 31.683594 11.660156 32.121094 11.269531 32.664062 10.816406 C 33.554688 10.066406 33.730469 9.898438 33.589844 9.902344 C 33.570312 9.90625 33.113281 10.273438 32.574219 10.71875 C 32.039062 11.171875 31.59375 11.539062 31.578125 11.539062 C 31.566406 11.539062 31.433594 11.394531 31.285156 11.21875 C 31.132812 11.042969 30.953125 10.839844 30.882812 10.769531 L 30.75 10.640625 L 31.667969 9.699219 C 32.402344 8.953125 32.582031 8.753906 32.550781 8.71875 C 32.519531 8.6875 32.324219 8.871094 31.589844 9.621094 L 30.667969 10.558594 L 30.542969 10.421875 C 30.472656 10.351562 30.273438 10.164062 30.101562 10.011719 C 29.929688 9.859375 29.789062 9.722656 29.789062 9.710938 C 29.789062 9.699219 30.152344 9.234375 30.601562 8.679688 C 31.292969 7.816406 31.40625 7.660156 31.363281 7.628906 C 31.324219 7.597656 31.1875 7.75 30.5 8.601562 C 30.046875 9.164062 29.671875 9.605469 29.648438 9.597656 C 29.625 9.589844 29.425781 9.441406 29.199219 9.269531 C 28.976562 9.097656 28.769531 8.945312 28.742188 8.929688 C 28.703125 8.90625 28.820312 8.703125 29.40625 7.816406 C 30.042969 6.835938 30.152344 6.636719 30.050781 6.636719 C 30.035156 6.636719 29.859375 6.886719 29.65625 7.195312 C 29.457031 7.503906 29.132812 7.996094 28.9375 8.289062 L 28.582031 8.820312 L 28.34375 8.667969 C 28.214844 8.582031 27.984375 8.4375 27.835938 8.355469 C 27.683594 8.265625 27.558594 8.191406 27.554688 8.1875 C 27.550781 8.183594 27.820312 7.660156 28.152344 7.023438 C 28.675781 6.03125 28.75 5.859375 28.710938 5.820312 C 28.691406 5.796875 28.664062 5.777344 28.660156 5.789062 C 28.652344 5.796875 28.375 6.320312 28.046875 6.953125 C 27.714844 7.585938 27.429688 8.105469 27.414062 8.105469 C 27.398438 8.105469 27.261719 8.039062 27.109375 7.960938 C 26.949219 7.878906 26.714844 7.761719 26.578125 7.699219 L 26.332031 7.585938 L 26.453125 7.28125 C 27.292969 5.222656 27.324219 5.152344 27.285156 5.125 C 27.261719 5.113281 27.234375 5.097656 27.226562 5.097656 C 27.21875 5.097656 27.023438 5.558594 26.792969 6.117188 C 26.566406 6.679688 26.34375 7.234375 26.292969 7.34375 L 26.207031 7.542969 L 25.988281 7.457031 C 25.867188 7.40625 25.625 7.316406 25.449219 7.257812 C 25.273438 7.195312 25.117188 7.136719 25.101562 7.125 C 25.085938 7.109375 25.144531 6.855469 25.234375 6.5625 C 25.394531 6.027344 25.777344 4.738281 25.804688 4.632812 C 25.816406 4.59375 25.804688 4.574219 25.757812 4.574219 C 25.71875 4.574219 25.6875 4.582031 25.6875 4.589844 C 25.6875 4.613281 24.957031 7.070312 24.941406 7.078125 C 24.9375 7.085938 24.839844 7.0625 24.726562 7.027344 C 24.617188 6.992188 24.355469 6.925781 24.152344 6.875 C 23.949219 6.828125 23.78125 6.789062 23.777344 6.78125 C 23.765625 6.777344 24.21875 4.453125 24.265625 4.261719 C 24.273438 4.210938 24.261719 4.1875 24.214844 4.175781 C 24.164062 4.160156 24.148438 4.183594 24.121094 4.328125 C 24.101562 4.417969 23.988281 4.996094 23.867188 5.617188 C 23.746094 6.230469 23.640625 6.738281 23.636719 6.746094 C 23.628906 6.757812 23.550781 6.746094 23.460938 6.730469 C 23.375 6.710938 23.117188 6.671875 22.886719 6.636719 L 22.46875 6.582031 L 22.472656 6.390625 C 22.472656 6.28125 22.519531 5.695312 22.582031 5.089844 C 22.664062 4.234375 22.679688 3.972656 22.648438 3.945312 C 22.621094 3.914062 22.605469 3.914062 22.589844 3.945312 C 22.574219 3.96875 22.507812 4.570312 22.4375 5.277344 L 22.316406 6.574219 L 22.039062 6.554688 C 21.472656 6.515625 21.429688 6.503906 21.414062 6.429688 C 21.363281 6.210938 21.132812 4.410156 21.113281 4.125 C 21.089844 3.8125 21.054688 3.695312 21.003906 3.746094 Z M 20.421875 8.128906 C 20.40625 8.199219 20.335938 8.695312 20.261719 9.234375 C 20.1875 9.773438 20.117188 10.191406 20.105469 10.164062 C 20.101562 10.140625 20.050781 9.679688 20.003906 9.152344 C 19.957031 8.621094 19.910156 8.15625 19.902344 8.117188 C 19.886719 8.039062 19.933594 8.023438 20.269531 8.015625 L 20.4375 8.007812 Z M 22.15625 8.054688 C 22.164062 8.058594 22.121094 8.554688 22.0625 9.148438 C 22.003906 9.746094 21.953125 10.21875 21.949219 10.199219 C 21.9375 10.175781 21.863281 9.671875 21.78125 9.078125 L 21.628906 7.996094 L 21.886719 8.019531 C 22.027344 8.03125 22.148438 8.042969 22.15625 8.054688 Z M 19.90625 9.429688 C 19.96875 10.09375 20.019531 10.710938 20.019531 10.800781 C 20.019531 10.960938 19.742188 13.074219 19.707031 13.171875 C 19.699219 13.199219 19.476562 12.125 19.214844 10.785156 C 18.953125 9.445312 18.730469 8.316406 18.722656 8.277344 C 18.707031 8.21875 18.726562 8.207031 18.941406 8.167969 C 19.066406 8.148438 19.300781 8.113281 19.460938 8.089844 L 19.746094 8.054688 L 19.769531 8.136719 C 19.78125 8.179688 19.84375 8.761719 19.90625 9.429688 Z M 22.597656 8.089844 C 22.882812 8.117188 23.351562 8.207031 23.351562 8.230469 C 23.351562 8.277344 22.378906 13.238281 22.371094 13.226562 C 22.367188 13.222656 22.289062 12.683594 22.195312 12.03125 L 22.027344 10.84375 L 22.164062 9.464844 C 22.234375 8.710938 22.292969 8.078125 22.292969 8.0625 C 22.292969 8.046875 22.320312 8.042969 22.351562 8.054688 C 22.378906 8.058594 22.492188 8.078125 22.597656 8.089844 Z M 18.628906 8.46875 C 18.652344 8.582031 18.890625 9.796875 19.15625 11.160156 L 19.640625 13.644531 L 19.605469 13.921875 C 19.542969 14.417969 19.464844 14.90625 19.457031 14.894531 C 19.449219 14.890625 19.359375 14.589844 19.25 14.234375 C 19.144531 13.875 18.957031 13.25 18.835938 12.84375 C 18.203125 10.730469 17.554688 8.539062 17.554688 8.519531 C 17.554688 8.480469 18.484375 8.234375 18.558594 8.25 C 18.574219 8.253906 18.605469 8.351562 18.628906 8.46875 Z M 23.851562 8.316406 C 24.039062 8.363281 24.265625 8.421875 24.359375 8.449219 L 24.53125 8.5 L 24.421875 8.851562 C 24.367188 9.042969 24.027344 10.179688 23.671875 11.375 C 22.90625 13.953125 22.648438 14.804688 22.625 14.871094 C 22.613281 14.898438 22.566406 14.640625 22.515625 14.300781 L 22.425781 13.679688 L 22.921875 11.128906 C 23.464844 8.324219 23.484375 8.238281 23.5 8.238281 C 23.507812 8.238281 23.664062 8.273438 23.851562 8.316406 Z M 17.550781 8.976562 C 17.621094 9.207031 17.769531 9.71875 17.890625 10.117188 C 18.003906 10.511719 18.175781 11.074219 18.261719 11.363281 C 18.347656 11.660156 18.488281 12.136719 18.574219 12.425781 C 18.660156 12.722656 18.832031 13.28125 18.945312 13.679688 C 19.066406 14.074219 19.21875 14.59375 19.289062 14.832031 L 19.417969 15.269531 L 19.367188 15.632812 C 19.335938 15.832031 19.3125 16 19.304688 16.003906 C 19.296875 16.007812 19.164062 15.683594 19.003906 15.285156 C 18.839844 14.886719 18.542969 14.148438 18.335938 13.644531 C 18.132812 13.144531 17.792969 12.3125 17.585938 11.800781 C 17.375 11.285156 17.039062 10.457031 16.832031 9.953125 C 16.625 9.449219 16.453125 9.003906 16.441406 8.96875 C 16.429688 8.90625 16.453125 8.886719 16.648438 8.8125 C 16.933594 8.699219 17.40625 8.539062 17.417969 8.546875 C 17.421875 8.550781 17.484375 8.742188 17.550781 8.976562 Z M 25.101562 8.699219 C 25.347656 8.789062 25.570312 8.871094 25.601562 8.878906 C 25.632812 8.890625 25.65625 8.902344 25.65625 8.90625 C 25.65625 8.914062 25.5625 9.140625 25.453125 9.417969 C 25.339844 9.695312 25.074219 10.34375 24.863281 10.867188 C 24.652344 11.386719 24.246094 12.382812 23.964844 13.074219 C 23.089844 15.230469 22.84375 15.832031 22.804688 15.933594 C 22.757812 16.046875 22.761719 16.050781 22.699219 15.605469 L 22.648438 15.277344 L 22.789062 14.804688 C 22.863281 14.542969 23.023438 14.007812 23.140625 13.613281 C 23.257812 13.21875 23.425781 12.65625 23.515625 12.363281 C 23.601562 12.070312 23.742188 11.59375 23.828125 11.300781 C 23.914062 11.007812 24.085938 10.445312 24.199219 10.050781 C 24.316406 9.65625 24.46875 9.152344 24.53125 8.933594 C 24.597656 8.710938 24.652344 8.53125 24.652344 8.53125 C 24.65625 8.53125 24.855469 8.605469 25.101562 8.699219 Z M 16.753906 10.089844 C 17.003906 10.71875 17.375 11.632812 17.574219 12.125 C 17.972656 13.101562 18.265625 13.824219 18.617188 14.691406 C 18.742188 14.996094 18.921875 15.4375 19.015625 15.664062 C 19.109375 15.898438 19.1875 16.089844 19.1875 16.101562 C 19.1875 16.105469 19.078125 16.058594 18.941406 15.988281 L 18.699219 15.867188 L 17.019531 12.664062 C 16.097656 10.90625 15.34375 9.457031 15.34375 9.4375 C 15.34375 9.414062 16.214844 8.960938 16.273438 8.957031 C 16.285156 8.957031 16.5 9.464844 16.753906 10.089844 Z M 26.453125 9.277344 C 26.613281 9.359375 26.742188 9.4375 26.738281 9.445312 C 26.734375 9.460938 25.972656 10.902344 25.050781 12.664062 L 23.375 15.855469 L 23.152344 15.96875 C 23.027344 16.03125 22.921875 16.078125 22.910156 16.070312 C 22.902344 16.058594 25.722656 9.0625 25.773438 8.984375 C 25.789062 8.957031 26.03125 9.058594 26.453125 9.277344 Z M 16.847656 12.621094 C 17.746094 14.332031 18.476562 15.742188 18.46875 15.746094 C 18.460938 15.75 18.316406 15.683594 18.140625 15.601562 L 17.824219 15.441406 L 16.058594 12.746094 C 14.304688 10.078125 14.289062 10.054688 14.359375 10.003906 C 14.480469 9.917969 15.199219 9.480469 15.207031 9.492188 C 15.210938 9.5 15.949219 10.902344 16.847656 12.621094 Z M 27.289062 9.738281 C 27.492188 9.863281 27.683594 9.984375 27.71875 10.011719 C 27.777344 10.054688 27.675781 10.21875 26.011719 12.75 L 24.246094 15.445312 L 23.921875 15.597656 C 23.746094 15.683594 23.59375 15.753906 23.585938 15.753906 C 23.585938 15.753906 23.945312 15.058594 24.386719 14.207031 C 24.832031 13.363281 25.570312 11.957031 26.023438 11.085938 C 26.476562 10.21875 26.863281 9.511719 26.878906 9.511719 C 26.898438 9.511719 27.082031 9.613281 27.289062 9.738281 Z M 15.886719 12.726562 L 17.582031 15.324219 L 17.210938 15.144531 C 17.003906 15.046875 16.777344 14.933594 16.707031 14.894531 C 16.613281 14.84375 16.167969 14.3125 14.949219 12.800781 L 13.320312 10.777344 L 13.390625 10.714844 C 13.527344 10.605469 14.164062 10.132812 14.175781 10.132812 C 14.183594 10.132812 14.953125 11.300781 15.886719 12.726562 Z M 28.324219 10.441406 C 28.550781 10.617188 28.730469 10.765625 28.730469 10.78125 C 28.730469 10.792969 28 11.710938 27.101562 12.824219 L 25.472656 14.84375 L 25.011719 15.070312 C 24.761719 15.195312 24.542969 15.296875 24.527344 15.296875 C 24.511719 15.296875 25.261719 14.132812 26.191406 12.714844 C 27.117188 11.292969 27.886719 10.132812 27.894531 10.132812 C 27.90625 10.132812 28.097656 10.273438 28.324219 10.441406 Z M 14.675781 12.664062 C 15.4375 13.617188 16.121094 14.464844 16.1875 14.550781 L 16.308594 14.707031 L 15.980469 14.546875 C 15.796875 14.460938 15.4375 14.285156 15.183594 14.160156 L 14.71875 13.929688 L 13.570312 12.757812 L 12.425781 11.582031 L 12.820312 11.21875 C 13.121094 10.941406 13.222656 10.863281 13.25 10.894531 C 13.265625 10.917969 13.910156 11.710938 14.675781 12.664062 Z M 29.40625 11.363281 L 29.644531 11.601562 L 28.511719 12.761719 L 27.375 13.921875 L 26.59375 14.300781 C 26.164062 14.507812 25.808594 14.675781 25.800781 14.667969 C 25.796875 14.664062 26.480469 13.804688 27.320312 12.761719 L 28.84375 10.859375 L 29.003906 10.996094 C 29.089844 11.070312 29.273438 11.234375 29.40625 11.363281 Z M 13.492188 12.867188 L 14.636719 14.039062 L 14.976562 14.757812 C 15.164062 15.152344 15.332031 15.507812 15.347656 15.550781 C 15.371094 15.621094 15.367188 15.625 15.3125 15.585938 C 15.101562 15.429688 11.628906 12.503906 11.632812 12.480469 C 11.648438 12.441406 12.304688 11.703125 12.328125 11.703125 C 12.339844 11.703125 12.863281 12.226562 13.492188 12.867188 Z M 29.921875 11.886719 C 30.023438 11.992188 30.183594 12.171875 30.277344 12.285156 L 30.453125 12.5 L 30.273438 12.648438 C 29.40625 13.382812 26.683594 15.648438 26.683594 15.640625 C 26.683594 15.632812 26.847656 15.269531 27.050781 14.832031 L 27.421875 14.039062 L 28.566406 12.867188 C 29.191406 12.226562 29.714844 11.703125 29.726562 11.703125 C 29.734375 11.703125 29.824219 11.785156 29.921875 11.886719 Z M 13.535156 14.277344 L 15.519531 15.933594 L 15.753906 16.421875 C 15.882812 16.6875 15.980469 16.910156 15.972656 16.917969 C 15.96875 16.925781 14.824219 16.152344 13.425781 15.203125 L 10.890625 13.476562 L 11.074219 13.21875 C 11.363281 12.804688 11.511719 12.617188 11.535156 12.617188 C 11.546875 12.617188 12.449219 13.363281 13.535156 14.277344 Z M 30.707031 12.820312 C 31.003906 13.207031 31.175781 13.46875 31.148438 13.496094 C 31.078125 13.558594 26.097656 16.933594 26.089844 16.925781 C 26.082031 16.917969 26.179688 16.695312 26.308594 16.429688 L 26.539062 15.945312 L 28.523438 14.285156 C 29.617188 13.363281 30.519531 12.617188 30.53125 12.617188 C 30.542969 12.617188 30.621094 12.707031 30.707031 12.820312 Z M 13.503906 15.414062 L 16.113281 17.199219 L 16.273438 17.527344 C 16.363281 17.707031 16.429688 17.859375 16.425781 17.863281 C 16.417969 17.867188 15.035156 17.121094 13.347656 16.203125 C 10.988281 14.914062 10.285156 14.519531 10.296875 14.480469 C 10.308594 14.453125 10.425781 14.242188 10.5625 14.011719 C 10.71875 13.746094 10.824219 13.601562 10.847656 13.609375 C 10.871094 13.621094 12.066406 14.429688 13.503906 15.414062 Z M 31.523438 14.042969 C 31.664062 14.273438 31.773438 14.480469 31.773438 14.503906 C 31.773438 14.523438 30.417969 15.277344 28.757812 16.179688 C 27.09375 17.085938 25.71875 17.835938 25.695312 17.855469 C 25.617188 17.917969 25.632812 17.859375 25.796875 17.527344 L 25.960938 17.1875 L 28.585938 15.394531 C 30.03125 14.40625 31.226562 13.601562 31.242188 13.609375 C 31.261719 13.613281 31.386719 13.804688 31.523438 14.042969 Z M 13.378906 16.367188 L 16.539062 18.089844 L 16.644531 18.320312 C 16.699219 18.445312 16.742188 18.554688 16.734375 18.558594 C 16.730469 18.566406 15.453125 18.035156 13.894531 17.378906 C 12.339844 16.722656 10.773438 16.0625 10.417969 15.910156 C 10.0625 15.761719 9.769531 15.625 9.769531 15.601562 C 9.769531 15.558594 10.1875 14.644531 10.207031 14.644531 C 10.210938 14.644531 11.640625 15.417969 13.378906 16.367188 Z M 32.042969 15.007812 C 32.269531 15.488281 32.320312 15.621094 32.292969 15.636719 C 32.28125 15.644531 30.9375 16.210938 29.308594 16.898438 C 27.679688 17.585938 26.113281 18.246094 25.828125 18.367188 C 25.539062 18.488281 25.304688 18.585938 25.304688 18.582031 C 25.304688 18.574219 25.355469 18.464844 25.417969 18.332031 L 25.527344 18.09375 L 28.675781 16.371094 C 30.40625 15.425781 31.832031 14.648438 31.84375 14.644531 C 31.863281 14.644531 31.949219 14.808594 32.042969 15.007812 Z M 10.667969 16.15625 C 11.027344 16.308594 12.511719 16.9375 13.964844 17.550781 C 15.417969 18.167969 16.621094 18.679688 16.632812 18.691406 C 16.648438 18.707031 16.5 18.742188 16.304688 18.769531 L 15.949219 18.820312 L 14.804688 18.46875 C 14.175781 18.273438 12.695312 17.816406 11.515625 17.453125 C 10.335938 17.085938 9.363281 16.785156 9.351562 16.777344 C 9.335938 16.761719 9.539062 16.144531 9.640625 15.90625 L 9.703125 15.753906 L 9.859375 15.816406 C 9.941406 15.851562 10.308594 16.003906 10.667969 16.15625 Z M 32.464844 15.988281 C 32.632812 16.445312 32.734375 16.765625 32.710938 16.78125 C 32.691406 16.789062 29.332031 17.828125 26.84375 18.597656 L 26.121094 18.820312 L 25.757812 18.769531 C 25.5625 18.742188 25.410156 18.707031 25.421875 18.695312 C 25.4375 18.683594 26.3125 18.308594 27.371094 17.863281 C 28.429688 17.414062 29.976562 16.757812 30.8125 16.40625 C 31.648438 16.046875 32.34375 15.757812 32.355469 15.757812 C 32.367188 15.753906 32.414062 15.863281 32.464844 15.988281 Z M 11.398438 17.550781 C 12.5 17.894531 13.890625 18.328125 14.484375 18.507812 C 15.082031 18.691406 15.566406 18.847656 15.566406 18.859375 C 15.566406 18.867188 15.304688 18.914062 14.984375 18.964844 L 14.398438 19.046875 L 12.058594 18.574219 C 10.773438 18.316406 9.570312 18.074219 9.386719 18.035156 C 9.199219 18 9.046875 17.96875 9.042969 17.964844 C 9.039062 17.960938 9.09375 17.722656 9.160156 17.4375 C 9.230469 17.148438 9.289062 16.910156 9.289062 16.90625 C 9.289062 16.898438 9.3125 16.898438 9.335938 16.910156 C 9.367188 16.921875 10.292969 17.207031 11.398438 17.550781 Z M 32.914062 17.464844 C 32.976562 17.730469 33.023438 17.953125 33.019531 17.960938 C 33 17.976562 27.804688 19.027344 27.710938 19.03125 C 27.574219 19.039062 26.488281 18.878906 26.488281 18.851562 C 26.488281 18.839844 26.507812 18.828125 26.527344 18.828125 C 26.558594 18.828125 27.589844 18.507812 31.519531 17.289062 C 32.359375 17.027344 32.757812 16.917969 32.773438 16.945312 C 32.789062 16.964844 32.851562 17.199219 32.914062 17.464844 Z M 11.335938 18.566406 C 12.578125 18.816406 13.675781 19.039062 13.765625 19.058594 C 13.863281 19.078125 13.933594 19.097656 13.925781 19.105469 C 13.921875 19.109375 13.398438 19.191406 12.765625 19.285156 L 11.609375 19.453125 L 10.425781 19.335938 C 9.777344 19.269531 9.15625 19.207031 9.050781 19.195312 L 8.863281 19.175781 L 8.882812 18.988281 C 8.925781 18.578125 9.011719 18.109375 9.042969 18.109375 C 9.0625 18.109375 10.09375 18.3125 11.335938 18.566406 Z M 33.054688 18.121094 C 33.054688 18.128906 33.070312 18.210938 33.089844 18.308594 C 33.125 18.503906 33.214844 19.167969 33.207031 19.171875 C 33.203125 19.175781 32.585938 19.242188 31.835938 19.316406 L 30.472656 19.453125 L 29.320312 19.285156 C 28.691406 19.191406 28.160156 19.113281 28.144531 19.109375 C 28.109375 19.097656 32.875 18.113281 32.984375 18.109375 C 33.023438 18.109375 33.054688 18.113281 33.054688 18.121094 Z M 9.976562 19.421875 C 10.5625 19.480469 11.007812 19.53125 10.96875 19.539062 C 10.933594 19.550781 10.433594 19.625 9.851562 19.710938 L 8.800781 19.863281 L 8.820312 19.667969 C 8.832031 19.558594 8.839844 19.433594 8.839844 19.394531 C 8.839844 19.351562 8.859375 19.316406 8.882812 19.316406 C 8.902344 19.316406 9.398438 19.363281 9.976562 19.421875 Z M 33.230469 19.4375 C 33.238281 19.507812 33.25 19.628906 33.25 19.710938 L 33.25 19.855469 L 32.21875 19.707031 C 31.078125 19.539062 30.996094 19.523438 31.167969 19.511719 C 31.226562 19.507812 31.660156 19.46875 32.128906 19.414062 C 33.285156 19.289062 33.203125 19.289062 33.230469 19.4375 Z M 9.929688 21.246094 C 10.519531 21.332031 10.980469 21.40625 10.953125 21.410156 C 10.929688 21.410156 10.449219 21.460938 9.886719 21.515625 C 9.328125 21.574219 8.863281 21.613281 8.855469 21.605469 C 8.832031 21.558594 8.804688 21.082031 8.832031 21.082031 C 8.84375 21.085938 9.339844 21.15625 9.929688 21.246094 Z M 33.246094 21.269531 C 33.242188 21.371094 33.234375 21.492188 33.21875 21.539062 L 33.199219 21.621094 L 32.175781 21.515625 C 31.613281 21.460938 31.136719 21.410156 31.117188 21.40625 C 31.085938 21.402344 33.078125 21.089844 33.195312 21.085938 C 33.238281 21.082031 33.25 21.109375 33.246094 21.269531 Z M 12.769531 21.65625 C 13.390625 21.746094 13.902344 21.828125 13.902344 21.839844 C 13.902344 21.855469 13.875 21.867188 13.847656 21.867188 C 13.816406 21.867188 12.714844 22.085938 11.410156 22.351562 C 9.828125 22.671875 9.023438 22.824219 9.011719 22.800781 C 8.992188 22.730469 8.90625 22.207031 8.890625 21.976562 L 8.867188 21.746094 L 9.148438 21.722656 C 9.304688 21.710938 9.902344 21.652344 10.472656 21.589844 C 11.046875 21.53125 11.542969 21.484375 11.578125 21.488281 C 11.613281 21.492188 12.152344 21.566406 12.769531 21.65625 Z M 31.902344 21.625 C 32.597656 21.691406 33.179688 21.753906 33.1875 21.765625 C 33.210938 21.785156 33.160156 22.230469 33.089844 22.625 C 33.066406 22.761719 33.035156 22.835938 33.015625 22.832031 C 32.992188 22.824219 31.910156 22.601562 30.605469 22.339844 C 29.300781 22.078125 28.214844 21.855469 28.1875 21.84375 C 28.125 21.820312 30.445312 21.472656 30.558594 21.492188 C 30.601562 21.496094 31.207031 21.554688 31.902344 21.625 Z M 15.011719 21.984375 C 15.328125 22.03125 15.585938 22.070312 15.589844 22.070312 C 15.589844 22.074219 15.121094 22.226562 14.546875 22.402344 C 13.425781 22.75 11.652344 23.296875 10.207031 23.75 C 9.714844 23.898438 9.308594 24.019531 9.300781 24.011719 C 9.285156 23.996094 9.074219 23.136719 9.058594 23.035156 C 9.046875 22.964844 9.09375 22.953125 11.644531 22.433594 C 13.070312 22.144531 14.28125 21.90625 14.335938 21.902344 C 14.394531 21.898438 14.695312 21.9375 15.011719 21.984375 Z M 30.175781 22.390625 C 31.507812 22.65625 32.6875 22.894531 32.808594 22.917969 C 32.929688 22.941406 33.023438 22.972656 33.023438 22.980469 C 33.023438 23.027344 32.890625 23.585938 32.828125 23.804688 C 32.777344 23.984375 32.753906 24.023438 32.710938 24.011719 C 32.679688 24 31.796875 23.726562 30.75 23.402344 C 29.703125 23.078125 28.3125 22.648438 27.664062 22.445312 C 27.015625 22.246094 26.503906 22.074219 26.523438 22.070312 C 26.59375 22.042969 27.53125 21.90625 27.644531 21.902344 C 27.710938 21.902344 28.847656 22.117188 30.175781 22.390625 Z M 16.332031 22.175781 C 16.496094 22.199219 16.636719 22.226562 16.640625 22.230469 C 16.648438 22.238281 16.035156 22.503906 15.285156 22.820312 C 11.152344 24.570312 9.734375 25.167969 9.710938 25.167969 C 9.695312 25.167969 9.667969 25.117188 9.648438 25.058594 C 9.628906 25.003906 9.554688 24.789062 9.480469 24.582031 C 9.410156 24.375 9.355469 24.191406 9.367188 24.171875 C 9.371094 24.152344 9.441406 24.113281 9.515625 24.09375 C 9.707031 24.035156 14.605469 22.527344 15.3125 22.308594 C 15.617188 22.210938 15.90625 22.132812 15.953125 22.132812 C 15.996094 22.132812 16.167969 22.152344 16.332031 22.175781 Z M 27.382812 22.5 C 28.046875 22.707031 29.503906 23.152344 30.621094 23.5 C 31.738281 23.84375 32.671875 24.132812 32.695312 24.136719 C 32.71875 24.148438 32.699219 24.246094 32.628906 24.472656 C 32.464844 24.957031 32.378906 25.167969 32.355469 25.167969 C 32.339844 25.167969 31.722656 24.914062 30.988281 24.597656 C 28.890625 23.714844 26.929688 22.882812 26.121094 22.542969 C 25.453125 22.257812 25.398438 22.230469 25.496094 22.210938 C 25.777344 22.164062 25.972656 22.132812 26.070312 22.132812 C 26.128906 22.132812 26.71875 22.292969 27.382812 22.5 Z M 16.753906 22.378906 C 16.753906 22.394531 16.699219 22.507812 16.628906 22.632812 L 16.511719 22.855469 L 13.375 24.566406 C 11.648438 25.507812 10.222656 26.277344 10.214844 26.277344 C 10.183594 26.277344 9.761719 25.355469 9.777344 25.316406 C 9.789062 25.296875 10.816406 24.851562 12.0625 24.324219 C 13.3125 23.796875 14.867188 23.140625 15.519531 22.867188 C 16.171875 22.589844 16.714844 22.359375 16.730469 22.359375 C 16.742188 22.355469 16.753906 22.367188 16.753906 22.378906 Z M 28.019531 23.488281 C 31.992188 25.164062 32.289062 25.292969 32.308594 25.308594 C 32.324219 25.328125 31.882812 26.277344 31.855469 26.277344 C 31.84375 26.277344 30.414062 25.503906 28.675781 24.554688 L 25.527344 22.835938 L 25.445312 22.675781 C 25.347656 22.488281 25.300781 22.355469 25.320312 22.355469 C 25.332031 22.355469 26.542969 22.867188 28.019531 23.488281 Z M 16.277344 23.394531 L 16.128906 23.726562 L 13.492188 25.527344 C 12.039062 26.515625 10.84375 27.324219 10.828125 27.324219 C 10.792969 27.324219 10.28125 26.472656 10.28125 26.414062 C 10.285156 26.394531 16.40625 23.050781 16.425781 23.058594 C 16.429688 23.0625 16.363281 23.210938 16.277344 23.394531 Z M 28.890625 24.824219 C 30.46875 25.683594 31.769531 26.390625 31.78125 26.394531 C 31.820312 26.417969 31.285156 27.324219 31.234375 27.324219 C 31.222656 27.324219 30.027344 26.515625 28.585938 25.535156 L 25.960938 23.742188 L 25.792969 23.414062 C 25.703125 23.238281 25.628906 23.078125 25.625 23.066406 C 25.625 23.050781 25.714844 23.09375 25.828125 23.152344 C 25.9375 23.214844 27.316406 23.96875 28.890625 24.824219 Z M 15.753906 24.507812 L 15.519531 24.996094 L 13.527344 26.667969 L 11.535156 28.335938 L 11.378906 28.132812 C 11.289062 28.019531 11.148438 27.820312 11.054688 27.695312 L 10.890625 27.457031 L 13.429688 25.726562 C 14.824219 24.777344 15.972656 24.003906 15.976562 24.007812 C 15.984375 24.011719 15.882812 24.238281 15.753906 24.507812 Z M 28.710938 25.773438 C 30.0625 26.6875 31.167969 27.449219 31.167969 27.457031 C 31.167969 27.476562 30.726562 28.097656 30.605469 28.246094 L 30.535156 28.332031 L 28.535156 26.660156 L 26.539062 24.988281 L 26.308594 24.515625 C 26.183594 24.253906 26.078125 24.027344 26.078125 24.011719 C 26.074219 23.976562 25.878906 23.847656 28.710938 25.773438 Z M 18.980469 25.335938 C 16.53125 31.402344 16.292969 31.96875 16.226562 31.945312 C 16.1875 31.933594 15.972656 31.832031 15.738281 31.722656 L 15.3125 31.515625 L 17.003906 28.296875 L 18.691406 25.074219 L 18.914062 24.960938 C 19.039062 24.894531 19.148438 24.84375 19.160156 24.84375 C 19.175781 24.839844 19.09375 25.066406 18.980469 25.335938 Z M 24.957031 28.089844 C 25.824219 29.746094 26.582031 31.191406 26.644531 31.304688 L 26.753906 31.507812 L 26.289062 31.738281 C 26.03125 31.863281 25.8125 31.964844 25.792969 31.964844 C 25.773438 31.964844 22.9375 25.011719 22.910156 24.882812 C 22.902344 24.855469 22.984375 24.882812 23.136719 24.960938 L 23.378906 25.082031 Z M 19.375 25.363281 L 19.417969 25.675781 L 18.421875 29.019531 C 17.875 30.859375 17.421875 32.371094 17.414062 32.378906 C 17.398438 32.394531 16.734375 32.160156 16.539062 32.074219 L 16.410156 32.015625 L 16.65625 31.410156 C 16.792969 31.078125 17.167969 30.160156 17.488281 29.367188 C 18.296875 27.382812 18.761719 26.234375 19.050781 25.53125 C 19.226562 25.105469 19.300781 24.949219 19.316406 24.992188 C 19.328125 25.027344 19.355469 25.195312 19.375 25.363281 Z M 23.460938 26.621094 C 23.828125 27.519531 24.265625 28.601562 24.441406 29.023438 C 25.175781 30.835938 25.527344 31.699219 25.589844 31.84375 C 25.628906 31.933594 25.65625 32.007812 25.65625 32.015625 C 25.65625 32.039062 24.664062 32.402344 24.648438 32.382812 C 24.644531 32.378906 24.191406 30.859375 23.644531 29.007812 L 22.648438 25.640625 L 22.699219 25.289062 C 22.730469 25.09375 22.765625 24.949219 22.777344 24.960938 C 22.789062 24.972656 23.097656 25.722656 23.460938 26.621094 Z M 16.910156 28.195312 C 16.042969 29.84375 15.308594 31.253906 15.273438 31.320312 L 15.210938 31.445312 L 15.027344 31.339844 C 14.929688 31.28125 14.722656 31.160156 14.566406 31.058594 L 14.285156 30.882812 L 17.816406 25.5 L 18.140625 25.335938 C 18.320312 25.25 18.46875 25.179688 18.476562 25.183594 C 18.480469 25.1875 17.773438 26.539062 16.910156 28.195312 Z M 23.960938 25.355469 L 24.265625 25.511719 L 25.988281 28.140625 C 26.933594 29.589844 27.726562 30.800781 27.742188 30.828125 C 27.769531 30.878906 27.742188 30.90625 27.589844 31.007812 C 27.335938 31.171875 26.867188 31.445312 26.859375 31.4375 C 26.839844 31.414062 23.605469 25.230469 23.605469 25.214844 C 23.605469 25.1875 23.660156 25.207031 23.960938 25.355469 Z M 15.015625 26.09375 L 14.65625 26.863281 L 13.496094 28.046875 L 12.335938 29.234375 L 12.265625 29.167969 C 12.136719 29.054688 11.628906 28.457031 11.632812 28.433594 C 11.648438 28.398438 15.355469 25.300781 15.367188 25.3125 C 15.371094 25.316406 15.214844 25.667969 15.015625 26.09375 Z M 28.601562 26.878906 C 29.605469 27.722656 30.425781 28.433594 30.421875 28.457031 C 30.417969 28.476562 30.261719 28.667969 30.078125 28.875 L 29.742188 29.246094 L 28.570312 28.054688 L 27.402344 26.863281 L 27.050781 26.109375 C 26.636719 25.230469 26.660156 25.28125 26.71875 25.316406 C 26.746094 25.335938 27.589844 26.035156 28.601562 26.878906 Z M 15.886719 28.203125 C 14.96875 29.609375 14.203125 30.765625 14.1875 30.777344 C 14.121094 30.816406 13.3125 30.179688 13.355469 30.121094 C 13.367188 30.101562 14.101562 29.1875 14.984375 28.089844 L 16.59375 26.09375 L 17.066406 25.863281 C 17.324219 25.734375 17.542969 25.636719 17.546875 25.640625 C 17.554688 25.648438 16.808594 26.800781 15.886719 28.203125 Z M 25.214844 25.96875 C 25.507812 26.113281 25.320312 25.894531 27.257812 28.300781 L 28.746094 30.144531 L 28.617188 30.257812 C 28.441406 30.417969 27.957031 30.765625 27.910156 30.769531 C 27.878906 30.773438 24.667969 25.933594 24.53125 25.683594 C 24.5 25.625 24.601562 25.667969 25.214844 25.96875 Z M 19.554688 26.65625 L 19.640625 27.277344 L 19.285156 29.089844 C 19.089844 30.085938 18.855469 31.292969 18.765625 31.769531 C 18.675781 32.246094 18.585938 32.648438 18.574219 32.664062 C 18.546875 32.699219 17.625 32.480469 17.574219 32.425781 C 17.5625 32.414062 17.824219 31.476562 18.179688 30.296875 C 18.523438 29.136719 18.921875 27.800781 19.0625 27.324219 C 19.398438 26.199219 19.453125 26.015625 19.460938 26.027344 C 19.464844 26.03125 19.511719 26.316406 19.554688 26.65625 Z M 23.109375 27.667969 C 23.371094 28.546875 23.796875 29.980469 24.054688 30.847656 C 24.316406 31.714844 24.515625 32.429688 24.507812 32.4375 C 24.460938 32.46875 23.511719 32.695312 23.496094 32.679688 C 23.484375 32.667969 23.242188 31.449219 22.953125 29.964844 L 22.429688 27.269531 L 22.515625 26.644531 C 22.558594 26.300781 22.609375 26.03125 22.617188 26.042969 C 22.625 26.054688 22.847656 26.785156 23.109375 27.667969 Z M 14.75 28.171875 L 13.222656 30.070312 L 13.058594 29.933594 C 12.964844 29.855469 12.785156 29.6875 12.660156 29.5625 L 12.425781 29.335938 L 13.570312 28.167969 L 14.71875 27 L 15.488281 26.628906 C 15.910156 26.421875 16.257812 26.257812 16.265625 26.261719 C 16.273438 26.269531 15.589844 27.128906 14.75 28.171875 Z M 26.808594 26.746094 L 27.371094 27.023438 L 28.5 28.179688 L 29.636719 29.339844 L 29.414062 29.554688 C 28.96875 29.988281 28.855469 30.078125 28.8125 30.03125 C 28.777344 29.992188 25.882812 26.382812 25.808594 26.289062 C 25.773438 26.238281 26.011719 26.351562 26.808594 26.746094 Z M 19.871094 28.894531 C 19.957031 29.480469 20.019531 30.035156 20.019531 30.128906 C 20.019531 30.300781 19.8125 32.570312 19.777344 32.777344 C 19.761719 32.882812 19.753906 32.882812 19.640625 32.867188 C 19.578125 32.859375 19.351562 32.824219 19.148438 32.796875 C 18.941406 32.761719 18.761719 32.730469 18.746094 32.722656 C 18.726562 32.707031 18.914062 31.667969 19.199219 30.210938 C 19.472656 28.808594 19.691406 27.746094 19.707031 27.777344 C 19.71875 27.804688 19.792969 28.308594 19.871094 28.894531 Z M 22.871094 30.214844 C 23.234375 32.082031 23.347656 32.703125 23.316406 32.71875 C 23.296875 32.730469 23.21875 32.753906 23.144531 32.761719 C 22.875 32.808594 22.316406 32.882812 22.304688 32.871094 C 22.300781 32.867188 22.234375 32.242188 22.164062 31.480469 L 22.03125 30.105469 L 22.195312 28.9375 C 22.285156 28.292969 22.359375 27.753906 22.359375 27.738281 C 22.359375 27.621094 22.4375 28.011719 22.871094 30.214844 Z M 20.4375 32.914062 C 20.4375 32.941406 19.941406 32.910156 19.921875 32.886719 C 19.902344 32.871094 20.089844 30.800781 20.117188 30.722656 C 20.117188 30.710938 20.429688 32.835938 20.4375 32.914062 Z M 22.070312 31.847656 C 22.125 32.402344 22.15625 32.871094 22.144531 32.882812 C 22.128906 32.898438 22.007812 32.914062 21.878906 32.917969 C 21.65625 32.921875 21.636719 32.921875 21.648438 32.863281 C 21.664062 32.71875 21.941406 30.742188 21.945312 30.726562 C 21.953125 30.683594 21.976562 30.878906 22.070312 31.847656 Z M 22.070312 31.847656 "/>
<path style=" stroke:none;fill-rule:nonzero;fill:rgb(0%,0%,0%);fill-opacity:1;" d="M 8.085938 6.078125 C 8.015625 6.117188 7.851562 6.253906 7.714844 6.386719 C 7.441406 6.65625 7.378906 6.777344 7.289062 7.257812 C 7.203125 7.699219 7.214844 7.691406 7.039062 7.367188 C 6.949219 7.207031 6.800781 6.910156 6.699219 6.703125 L 6.523438 6.332031 L 6.3125 6.351562 C 5.980469 6.378906 5.753906 6.507812 5.609375 6.742188 C 5.550781 6.839844 5.46875 7.125 5.488281 7.148438 C 5.496094 7.15625 5.566406 7.132812 5.648438 7.097656 C 5.746094 7.054688 5.796875 7.007812 5.796875 6.972656 C 5.796875 6.9375 5.828125 6.851562 5.859375 6.777344 C 5.921875 6.632812 6.058594 6.535156 6.191406 6.535156 L 6.269531 6.535156 L 6.148438 7.136719 C 6.078125 7.472656 6.003906 7.785156 5.976562 7.839844 C 5.917969 7.957031 5.777344 8.074219 5.695312 8.074219 C 5.609375 8.074219 5.457031 7.988281 5.402344 7.90625 C 5.355469 7.835938 5.351562 7.839844 5.242188 7.964844 L 5.128906 8.089844 L 5.199219 8.144531 C 5.324219 8.25 5.507812 8.277344 5.703125 8.238281 C 5.847656 8.203125 5.90625 8.167969 6.042969 8.027344 C 6.222656 7.835938 6.308594 7.640625 6.398438 7.214844 L 6.457031 6.953125 L 6.742188 7.488281 C 6.898438 7.78125 7.054688 8.082031 7.089844 8.15625 C 7.125 8.226562 7.152344 8.289062 7.160156 8.296875 C 7.164062 8.296875 7.210938 8.285156 7.265625 8.265625 C 7.34375 8.238281 7.371094 8.207031 7.382812 8.113281 C 7.4375 7.789062 7.632812 6.808594 7.660156 6.738281 C 7.738281 6.527344 7.914062 6.449219 8.0625 6.554688 C 8.128906 6.601562 8.136719 6.597656 8.199219 6.472656 L 8.265625 6.339844 L 8.167969 6.320312 C 8.117188 6.308594 8.082031 6.285156 8.089844 6.269531 C 8.125 6.214844 8.359375 6.265625 8.445312 6.34375 C 8.636719 6.527344 8.730469 7.097656 8.695312 7.816406 C 8.675781 8.226562 8.679688 8.269531 8.726562 8.269531 C 8.84375 8.269531 8.902344 8.1875 9.191406 7.585938 C 9.371094 7.21875 9.503906 6.976562 9.515625 7.003906 C 9.554688 7.070312 9.609375 7.65625 9.609375 7.976562 C 9.609375 8.238281 9.617188 8.269531 9.667969 8.269531 C 9.699219 8.269531 9.746094 8.25 9.777344 8.226562 C 9.804688 8.207031 10.019531 7.808594 10.253906 7.34375 C 10.550781 6.761719 10.699219 6.503906 10.734375 6.503906 C 10.785156 6.503906 10.828125 6.441406 10.828125 6.371094 C 10.828125 6.355469 10.699219 6.339844 10.542969 6.339844 C 10.3125 6.339844 10.253906 6.351562 10.238281 6.394531 C 10.203125 6.484375 10.214844 6.503906 10.3125 6.503906 C 10.367188 6.503906 10.410156 6.511719 10.410156 6.519531 C 10.410156 6.632812 9.921875 7.667969 9.910156 7.582031 C 9.90625 7.558594 9.867188 7.273438 9.832031 6.953125 L 9.757812 6.371094 L 9.675781 6.378906 C 9.601562 6.390625 9.558594 6.460938 9.316406 6.949219 L 9.039062 7.507812 L 9.015625 7.210938 C 8.976562 6.667969 8.878906 6.351562 8.691406 6.171875 C 8.515625 6.003906 8.300781 5.972656 8.085938 6.078125 Z M 8.085938 6.078125 "/>
<path style=" stroke:none;fill-rule:nonzero;fill:rgb(0%,0%,0%);fill-opacity:1;" d="M 34.550781 6.183594 C 34.394531 6.226562 34.210938 6.410156 34.121094 6.613281 C 34.082031 6.695312 34.015625 6.9375 33.976562 7.144531 L 33.898438 7.527344 L 33.65625 7.074219 C 33.515625 6.824219 33.371094 6.527344 33.320312 6.414062 L 33.234375 6.210938 L 33.054688 6.210938 C 32.609375 6.210938 32.265625 6.484375 32.191406 6.902344 C 32.179688 6.972656 32.171875 7.027344 32.183594 7.027344 C 32.1875 7.027344 32.265625 6.992188 32.351562 6.945312 C 32.484375 6.875 32.511719 6.847656 32.511719 6.773438 C 32.511719 6.675781 32.597656 6.523438 32.691406 6.457031 C 32.785156 6.390625 32.945312 6.378906 32.941406 6.4375 C 32.929688 6.550781 32.730469 7.5625 32.699219 7.640625 C 32.597656 7.917969 32.347656 7.992188 32.148438 7.808594 L 32.03125 7.707031 L 31.917969 7.832031 C 31.792969 7.964844 31.796875 7.972656 31.988281 8.058594 C 32.109375 8.113281 32.375 8.121094 32.492188 8.074219 C 32.621094 8.023438 32.832031 7.8125 32.910156 7.652344 C 32.996094 7.476562 33.074219 7.210938 33.105469 6.984375 C 33.117188 6.898438 33.136719 6.832031 33.148438 6.832031 C 33.171875 6.835938 33.71875 7.859375 33.789062 8.035156 C 33.832031 8.136719 33.84375 8.140625 33.929688 8.125 C 34.039062 8.101562 34.082031 8.058594 34.082031 7.957031 C 34.082031 7.816406 34.332031 6.644531 34.382812 6.535156 C 34.449219 6.390625 34.558594 6.328125 34.671875 6.375 C 34.765625 6.410156 34.773438 6.445312 34.703125 6.507812 C 34.628906 6.570312 34.5625 6.714844 34.53125 6.878906 C 34.515625 6.960938 34.511719 7.027344 34.519531 7.027344 C 34.527344 7.027344 34.601562 6.992188 34.691406 6.945312 C 34.816406 6.878906 34.851562 6.84375 34.851562 6.78125 C 34.851562 6.597656 34.992188 6.445312 35.210938 6.394531 C 35.292969 6.375 35.296875 6.378906 35.28125 6.445312 C 35.277344 6.488281 35.21875 6.777344 35.15625 7.089844 C 35.09375 7.402344 35.023438 7.691406 34.996094 7.734375 C 34.964844 7.777344 34.902344 7.816406 34.824219 7.828125 C 34.738281 7.839844 34.660156 7.886719 34.582031 7.972656 L 34.460938 8.097656 L 35.101562 8.121094 C 35.699219 8.144531 35.742188 8.140625 35.863281 8.078125 C 36.015625 8 36.085938 7.921875 36.117188 7.800781 C 36.144531 7.695312 36.125 7.691406 36 7.785156 C 35.914062 7.855469 35.859375 7.859375 35.519531 7.867188 L 35.136719 7.875 L 35.25 7.738281 C 35.351562 7.617188 35.457031 7.355469 35.457031 7.230469 C 35.457031 7.195312 35.5 7.1875 35.675781 7.207031 C 35.886719 7.226562 35.894531 7.226562 35.984375 7.128906 L 36.078125 7.027344 L 35.800781 7.027344 C 35.480469 7.027344 35.496094 7.058594 35.578125 6.648438 L 35.628906 6.375 L 35.742188 6.375 C 35.808594 6.375 35.914062 6.390625 35.980469 6.410156 C 36.082031 6.4375 36.097656 6.457031 36.097656 6.539062 C 36.097656 6.621094 36.113281 6.636719 36.167969 6.628906 C 36.222656 6.621094 36.253906 6.578125 36.292969 6.457031 C 36.328125 6.363281 36.351562 6.273438 36.351562 6.25 C 36.355469 6.21875 36.230469 6.210938 35.832031 6.210938 C 35.347656 6.210938 35.136719 6.234375 34.9375 6.324219 C 34.882812 6.347656 34.878906 6.34375 34.917969 6.28125 C 34.941406 6.242188 34.953125 6.207031 34.941406 6.195312 C 34.90625 6.15625 34.664062 6.152344 34.550781 6.183594 Z M 34.550781 6.183594 "/>
<path style=" stroke:none;fill-rule:nonzero;fill:rgb(0%,0%,0%);fill-opacity:1;" d="M 0.792969 18.644531 C 0.597656 18.699219 0.425781 18.816406 0.191406 19.0625 C -0.0078125 19.269531 -0.0195312 19.304688 0.0742188 19.363281 C 0.117188 19.390625 0.15625 19.367188 0.292969 19.230469 C 0.527344 19 0.640625 18.949219 0.867188 18.964844 C 1.242188 18.988281 1.445312 19.28125 1.59375 20.019531 C 1.640625 20.234375 1.648438 20.460938 1.644531 21.304688 L 1.644531 22.324219 L 1.757812 22.304688 C 1.824219 22.292969 1.886719 22.273438 1.902344 22.265625 C 1.914062 22.257812 2.164062 21.757812 2.453125 21.152344 C 2.746094 20.550781 2.988281 20.066406 2.996094 20.074219 C 3.0625 20.144531 3.171875 21.210938 3.171875 21.828125 L 3.171875 22.328125 L 3.292969 22.304688 C 3.355469 22.292969 3.425781 22.269531 3.445312 22.246094 C 3.464844 22.226562 3.804688 21.570312 4.199219 20.792969 C 4.878906 19.453125 4.921875 19.382812 5 19.382812 C 5.097656 19.382812 5.105469 19.371094 5.136719 19.242188 L 5.15625 19.152344 L 4.695312 19.152344 C 4.242188 19.152344 4.234375 19.152344 4.214844 19.226562 C 4.179688 19.367188 4.191406 19.382812 4.324219 19.382812 C 4.414062 19.382812 4.460938 19.398438 4.476562 19.433594 C 4.511719 19.53125 4.359375 19.921875 3.996094 20.660156 L 3.640625 21.390625 L 3.597656 21 C 3.558594 20.636719 3.417969 19.53125 3.378906 19.296875 C 3.363281 19.195312 3.359375 19.191406 3.242188 19.226562 L 3.121094 19.253906 L 2.640625 20.238281 L 2.164062 21.21875 L 2.140625 20.785156 C 2.089844 19.769531 1.945312 19.226562 1.628906 18.890625 C 1.410156 18.660156 1.085938 18.5625 0.792969 18.644531 Z M 0.792969 18.644531 "/>
<path style=" stroke:none;fill-rule:nonzero;fill:rgb(0%,0%,0%);fill-opacity:1;" d="M 39.085938 18.941406 C 38.441406 19.085938 38.089844 19.449219 38.007812 20.058594 L 37.988281 20.195312 L 38.21875 20.085938 C 38.417969 19.988281 38.453125 19.957031 38.464844 19.878906 C 38.484375 19.675781 38.542969 19.535156 38.652344 19.410156 C 38.792969 19.25 38.945312 19.167969 39.152344 19.136719 C 39.300781 19.113281 39.304688 19.113281 39.285156 19.1875 C 39.277344 19.230469 39.183594 19.710938 39.078125 20.246094 C 38.972656 20.785156 38.855469 21.285156 38.820312 21.359375 C 38.75 21.511719 38.660156 21.566406 38.441406 21.59375 C 38.320312 21.609375 38.265625 21.640625 38.125 21.777344 C 38.035156 21.871094 37.957031 21.953125 37.957031 21.964844 C 37.957031 21.972656 38.070312 21.988281 38.207031 21.992188 C 38.339844 21.992188 38.785156 22.011719 39.191406 22.03125 C 39.976562 22.066406 40.046875 22.058594 40.273438 21.917969 C 40.464844 21.804688 40.582031 21.667969 40.605469 21.527344 L 40.625 21.410156 L 40.441406 21.519531 C 40.203125 21.667969 40.097656 21.683594 39.472656 21.652344 L 38.949219 21.632812 L 39.140625 21.425781 C 39.339844 21.203125 39.425781 21.023438 39.496094 20.660156 L 39.539062 20.453125 L 39.703125 20.472656 C 39.789062 20.484375 39.949219 20.5 40.054688 20.511719 L 40.246094 20.53125 L 40.390625 20.382812 L 40.53125 20.230469 L 39.585938 20.230469 L 39.601562 20.15625 C 39.609375 20.117188 39.65625 19.867188 39.707031 19.597656 L 39.796875 19.113281 L 40.121094 19.128906 C 40.542969 19.148438 40.617188 19.1875 40.617188 19.402344 C 40.617188 19.550781 40.617188 19.550781 40.714844 19.539062 C 40.808594 19.527344 40.816406 19.515625 40.90625 19.234375 C 40.957031 19.070312 41 18.929688 41 18.914062 C 41 18.871094 39.300781 18.890625 39.085938 18.941406 Z M 39.085938 18.941406 "/>
<path style=" stroke:none;fill-rule:nonzero;fill:rgb(0%,0%,0%);fill-opacity:1;" d="M 7.511719 32.707031 C 7.460938 32.734375 7.355469 32.816406 7.28125 32.886719 L 7.148438 33.019531 L 6.957031 32.96875 C 6.554688 32.863281 6.179688 33.054688 6.082031 33.410156 C 6.03125 33.609375 6.085938 33.714844 6.40625 34.027344 C 6.664062 34.285156 6.695312 34.324219 6.695312 34.429688 C 6.695312 34.515625 6.671875 34.574219 6.613281 34.628906 C 6.503906 34.742188 6.253906 34.742188 6.058594 34.628906 L 5.917969 34.542969 L 5.808594 34.652344 C 5.75 34.707031 5.703125 34.765625 5.703125 34.777344 C 5.703125 34.824219 6.039062 34.90625 6.210938 34.90625 C 6.699219 34.90625 7.074219 34.5625 6.976562 34.203125 C 6.953125 34.117188 6.859375 33.996094 6.644531 33.78125 C 6.335938 33.480469 6.300781 33.410156 6.375 33.269531 C 6.496094 33.042969 6.933594 33.074219 6.957031 33.3125 C 6.964844 33.394531 6.984375 33.421875 7.039062 33.429688 C 7.097656 33.441406 7.109375 33.421875 7.128906 33.304688 C 7.144531 33.222656 7.171875 33.164062 7.203125 33.148438 C 7.234375 33.140625 7.28125 33.097656 7.3125 33.054688 C 7.445312 32.882812 7.679688 32.832031 7.828125 32.949219 C 8.050781 33.125 8.121094 33.457031 8.117188 34.277344 C 8.113281 34.625 8.125 34.90625 8.140625 34.90625 C 8.265625 34.90625 8.324219 34.824219 8.617188 34.222656 C 8.78125 33.882812 8.929688 33.613281 8.941406 33.625 C 8.976562 33.664062 9.03125 34.253906 9.03125 34.601562 L 9.03125 34.914062 L 9.121094 34.890625 C 9.171875 34.882812 9.21875 34.863281 9.226562 34.847656 C 9.242188 34.835938 9.441406 34.445312 9.675781 33.984375 C 9.980469 33.382812 10.117188 33.140625 10.15625 33.140625 C 10.207031 33.140625 10.25 33.082031 10.25 33.007812 C 10.25 32.992188 10.121094 32.980469 9.964844 32.980469 C 9.734375 32.980469 9.675781 32.988281 9.660156 33.03125 C 9.625 33.121094 9.636719 33.140625 9.738281 33.140625 C 9.792969 33.140625 9.832031 33.148438 9.832031 33.160156 C 9.832031 33.214844 9.652344 33.636719 9.511719 33.925781 C 9.378906 34.195312 9.335938 34.25 9.332031 34.1875 C 9.292969 33.847656 9.183594 32.992188 9.175781 32.984375 C 9.171875 32.980469 9.132812 32.992188 9.085938 33.007812 C 9.019531 33.035156 8.945312 33.15625 8.734375 33.589844 L 8.464844 34.136719 L 8.445312 33.84375 C 8.394531 33.230469 8.261719 32.875 8.023438 32.730469 C 7.867188 32.640625 7.65625 32.628906 7.511719 32.707031 Z M 7.511719 32.707031 "/>
<path style=" stroke:none;fill-rule:nonzero;fill:rgb(0%,0%,0%);fill-opacity:1;" d="M 33.152344 32.847656 C 32.882812 32.976562 32.769531 33.140625 32.769531 33.390625 C 32.769531 33.542969 32.773438 33.550781 33.078125 33.867188 C 33.351562 34.152344 33.390625 34.203125 33.390625 34.304688 C 33.390625 34.5625 33.097656 34.65625 32.78125 34.5 L 32.601562 34.410156 L 32.492188 34.519531 L 32.382812 34.625 L 32.453125 34.667969 C 32.496094 34.6875 32.601562 34.722656 32.691406 34.746094 C 33.070312 34.835938 33.484375 34.667969 33.628906 34.375 C 33.75 34.125 33.714844 34.035156 33.355469 33.671875 C 33.082031 33.390625 33.054688 33.355469 33.054688 33.242188 C 33.054688 33.066406 33.167969 32.980469 33.378906 32.980469 C 33.503906 32.980469 33.542969 32.992188 33.597656 33.0625 C 33.636719 33.113281 33.664062 33.179688 33.664062 33.210938 C 33.664062 33.253906 33.6875 33.273438 33.738281 33.273438 C 33.804688 33.273438 33.820312 33.25 33.847656 33.089844 L 33.878906 32.90625 L 33.765625 32.859375 C 33.570312 32.773438 33.316406 32.769531 33.152344 32.847656 Z M 33.152344 32.847656 "/>
<path style=" stroke:none;fill-rule:nonzero;fill:rgb(0%,0%,0%);fill-opacity:1;" d="M 34.800781 32.847656 C 34.289062 32.90625 34.058594 33.082031 33.964844 33.492188 C 33.945312 33.585938 33.933594 33.664062 33.941406 33.664062 C 33.949219 33.664062 34.027344 33.628906 34.113281 33.582031 C 34.246094 33.515625 34.273438 33.484375 34.273438 33.410156 C 34.273438 33.261719 34.382812 33.121094 34.542969 33.0625 C 34.625 33.027344 34.695312 33.007812 34.707031 33.015625 C 34.730469 33.042969 34.46875 34.296875 34.417969 34.371094 C 34.382812 34.425781 34.335938 34.449219 34.265625 34.449219 C 34.183594 34.449219 34.128906 34.480469 34.03125 34.582031 C 33.964844 34.652344 33.914062 34.71875 33.925781 34.722656 C 33.929688 34.730469 34.230469 34.742188 34.585938 34.75 L 35.226562 34.761719 L 35.367188 34.664062 C 35.484375 34.578125 35.589844 34.40625 35.546875 34.367188 C 35.542969 34.363281 35.464844 34.390625 35.378906 34.433594 C 35.21875 34.519531 35.097656 34.53125 34.765625 34.496094 L 34.578125 34.476562 L 34.679688 34.363281 C 34.773438 34.261719 34.882812 33.996094 34.882812 33.867188 C 34.882812 33.828125 34.921875 33.824219 35.097656 33.839844 C 35.296875 33.859375 35.316406 33.855469 35.402344 33.773438 C 35.449219 33.722656 35.492188 33.671875 35.492188 33.65625 C 35.492188 33.644531 35.367188 33.632812 35.21875 33.640625 C 35.066406 33.644531 34.945312 33.636719 34.945312 33.621094 C 34.945312 33.605469 34.96875 33.460938 34.996094 33.300781 L 35.050781 33.011719 L 35.199219 33.015625 C 35.445312 33.023438 35.507812 33.046875 35.515625 33.167969 C 35.527344 33.257812 35.539062 33.277344 35.59375 33.265625 C 35.640625 33.261719 35.675781 33.210938 35.71875 33.09375 C 35.816406 32.800781 35.832031 32.816406 35.402344 32.820312 C 35.195312 32.820312 34.925781 32.835938 34.800781 32.847656 Z M 34.800781 32.847656 "/>
<path style=" stroke:none;fill-rule:nonzero;fill:rgb(0%,0%,0%);fill-opacity:1;" d="M 21.304688 37.753906 C 21.210938 37.769531 21.0625 37.824219 20.972656 37.871094 C 20.769531 37.988281 20.523438 38.261719 20.472656 38.425781 C 20.421875 38.601562 20.425781 38.839844 20.480469 38.96875 C 20.523438 39.070312 20.792969 39.347656 21.132812 39.644531 C 21.476562 39.941406 21.578125 40.226562 21.417969 40.46875 C 21.203125 40.796875 20.726562 40.800781 20.234375 40.472656 L 20.148438 40.414062 L 19.976562 40.589844 C 19.785156 40.785156 19.785156 40.777344 20.117188 40.894531 C 20.410156 41 20.917969 41 21.179688 40.890625 C 21.582031 40.730469 21.84375 40.46875 21.914062 40.152344 C 21.984375 39.820312 21.859375 39.605469 21.324219 39.128906 C 20.917969 38.769531 20.839844 38.652344 20.859375 38.4375 C 20.894531 38.066406 21.324219 37.867188 21.707031 38.042969 C 21.859375 38.113281 21.910156 38.1875 21.921875 38.367188 C 21.933594 38.472656 21.945312 38.488281 22.027344 38.496094 L 22.125 38.507812 L 22.179688 38.226562 C 22.207031 38.070312 22.226562 37.933594 22.214844 37.917969 C 22.1875 37.871094 21.816406 37.757812 21.636719 37.742188 C 21.550781 37.730469 21.398438 37.738281 21.304688 37.753906 Z M 21.304688 37.753906 "/>
</g>
</svg>
